<svg xmlns="http://www.w3.org/2000/svg" width="2400" height="1512"><path d="M1978 291.99v36.676l154.334-.31c84.883-.172 160.5-.323 168.037-.335l13.707-.021-.373-17.666-.371-17.668-167.668-.338zM786 292l-.002 18.334-.002 18.332 8.002-.451 8.002-.451V292h-8zm1192 47.959v37.416l37.666-.354 37.668-.355v-36l-37.668-.353zM786 340v37.494l5-.414 5-.414.371-18.332.371-18.334h-5.37zm1192 47.95v37.433l30.334-.358 30.332-.359v-36l-30.332-.357zM786 388v37.334h10.666V388h-5.332zm0 47.967V473.367l47.666-.35 47.668-.351v-36l-47.668-.35zm0 47.978v37.444l27-.362 27-.361v-36l-27-.36zm1192 .004v37.434l30.334-.358 30.332-.359v-36l-30.332-.357zm0 47.905v37.625l6.334-.407 6.332-.406v-36l-6.332-.406zm-1192 .086v37.394h49.408l-.37-18.334-.372-18.334-24.332-.363zm0 48.03v37.364h112.077L897.704 599l-.371-18.334-55.668-.348zm1192 .01V617.333h184.077l-.372-18.332-.371-18.334-91.668-.342zM787.693 628.769c-1.447-.21-1.693 2.934-1.693 17.941 0 15.666.318 18.625 2 18.625 1.678 0 2-2.873 2-17.857 0-14.644-.36-17.996-2-18.625a1.446 1.446 0 0 0-.307-.084zm1189.563 41.013c-.355.035-.59.322-.59.807 0 .777.6 1.412 1.334 1.412.733 0 1.334-.265 1.334-.588 0-.323-.6-.959-1.334-1.412-.275-.17-.531-.24-.744-.219zM786 676.666v36.668h133.334v-36l-9.668-.016c-5.317-.008-35.316-.156-66.666-.332zm1192 .58v36.174l15-.377 15-.377V678l-15-.377zm319.31 25.387c-.345 1.462-.734 3.265-.46 4.435.014-.231-.179-.764.043-.695.332.104.378 4.555.42 6.684v-10.424zM1978 725.299v36.07l45-.351 45-.352V726l-45-.352zm-1192 .035v36h10.666v-36h-5.332zm0 47.961v36.076l41.666-.351 41.668-.354V774l-41.668-.352zm1192 .04v36h352v-36h-176zm0 48v36h258.666v-36h-129.332zm0 47.956V906l38.04-.373 51.817-.055v-36l-52.191.074zm-1192 .043V906l170.334-.309c93.683-.17 174.683-.32 180-.334l9.666-.023v-36H966zm1192 47.854v37.625l6.334-.407 6.332-.406v-36l-6.332-.406zm-1192 .146V954.689l72.334-.343 72.332-.346.371-18.334.371-18.332h-72.703zm1192 47.854v37.625l6.334-.407 6.332-.406v-36l-6.332-.406zm-1192 .146v37.332h10.666v-37.332h-5.332zm1192 48v37.36l60.334-.346 60.332-.348.371-18.334.371-18.332h-60.703zm-1190.563.309c-1.097.167-1.437 4.746-1.437 18.357 0 14.518.385 18.761 1.666 18.334 1.222-.407 1.668-5.297 1.668-18.334 0-13.037-.446-17.927-1.668-18.334a.468.468 0 0 0-.229-.023zM786 1061.2v37.598l7.666-.399 7.668-.4v-36l-7.668-.4zm0 48.02v37.559l10.334-.391 10.332-.389v-36l-10.332-.389zm1192 .113v37.332h44v-37.332h-22zm0 47.957v37.418l37.666-.355 37.668-.354v-36l-37.668-.353zm-1190.563.35c-1.097.166-1.437 4.72-1.437 18.248 0 15.956.306 18.777 2.037 18.777 1.747 0 1.986-2.6 1.668-18.223-.267-13.123-.839-18.38-2.039-18.779a.48.48 0 0 0-.229-.023zM785.999 1206v18.355l.002 18.356 35.666-.356 35.668-.355v-34.666l-35.668-.668zm1192 0v18.377h.01v18.377l15-.377 15-.377v-34.666l-15.008-.668zm-.742 41.115c-.355.035-.59.321-.59.807 0 .777.6 1.412 1.334 1.412.733 0 1.334-.265 1.334-.588 0-.323-.6-.959-1.334-1.412-.275-.17-.531-.24-.744-.219zM786 1253.93V1290.666h10.666v-35.719l-5.332-.51zm1192 .65v36.174l15-.377 15-.377v-34.666l-15-.377zm-1192 48.086v36h10.666v-36h-5.332zm1484.27 21.85c-.166.042-.317.095-.475.142.171 0 .342.01.514 0 .05 0-.032-.09-.04-.142zm-221.936 66.175c-.053 0-.105.075-.156.19h1.494a5.043 5.043 0 0 0-1.338-.19z" fill="#66b4cd"/><text style="line-height:1.25" x="815.793" y="322.138" font-weight="400" font-size="40" font-family="sans-serif" letter-spacing="0" word-spacing="0"><tspan x="815.793" y="322.138">3</tspan></text><text style="line-height:1.25" x="805.488" y="372.236" font-weight="400" font-size="40" font-family="sans-serif" letter-spacing="0" word-spacing="0"><tspan x="805.488" y="372.236">2</tspan></text><text style="line-height:1.25" x="807.714" y="419.714" font-weight="400" font-size="40" font-family="sans-serif" letter-spacing="0" word-spacing="0"><tspan x="807.714" y="419.714">2</tspan></text><text style="line-height:1.25" x="893.172" y="468.601" font-weight="400" font-size="40" font-family="sans-serif" letter-spacing="0" word-spacing="0"><tspan x="893.172" y="468.601">17</tspan></text><text style="line-height:1.25" x="847.921" y="516.887" font-weight="400" font-size="40" font-family="sans-serif" letter-spacing="0" word-spacing="0"><tspan x="847.921" y="516.887">10</tspan></text><text style="line-height:1.25" x="850.552" y="564.158" font-weight="400" font-size="40" font-family="sans-serif" letter-spacing="0" word-spacing="0"><tspan x="850.552" y="564.158">9</tspan></text><text style="line-height:1.25" x="908.729" y="612.64" font-weight="400" font-size="40" font-family="sans-serif" letter-spacing="0" word-spacing="0"><tspan x="908.729" y="612.64">20</tspan></text><text style="line-height:1.25" x="800.837" y="660.926" font-weight="400" font-size="40" font-family="sans-serif" letter-spacing="0" word-spacing="0"><tspan x="800.837" y="660.926">1</tspan></text><text style="line-height:1.25" x="926.305" y="710.621" font-weight="400" font-size="40" font-family="sans-serif" letter-spacing="0" word-spacing="0"><tspan x="926.305" y="710.621">24</tspan></text><text style="line-height:1.25" x="806.099" y="757.695" font-weight="400" font-size="40" font-family="sans-serif" letter-spacing="0" word-spacing="0"><tspan x="806.099" y="757.695">2</tspan></text><text style="line-height:1.25" x="876.404" y="804.966" font-weight="400" font-size="40" font-family="sans-serif" letter-spacing="0" word-spacing="0"><tspan x="876.404" y="804.966">15</tspan></text><text style="line-height:1.25" x="785.488" y="850.02" font-weight="400" font-size="40" font-family="sans-serif" letter-spacing="0" word-spacing="0"><tspan x="785.488" y="850.02">0</tspan></text><text style="line-height:1.25" x="1152.138" y="900.108" font-weight="400" font-size="40" font-family="sans-serif" letter-spacing="0" word-spacing="0"><tspan x="1152.138" y="900.108">64</tspan></text><text style="line-height:1.25" x="942.266" y="949.015" font-weight="400" font-size="40" font-family="sans-serif" letter-spacing="0" word-spacing="0"><tspan x="942.266" y="949.015">26</tspan></text><text style="line-height:1.25" x="804.68" y="997.291" font-weight="400" font-size="40" font-family="sans-serif" letter-spacing="0" word-spacing="0"><tspan x="804.68" y="997.291">2</tspan></text><text style="line-height:1.25" x="795.596" y="1045.98" font-weight="400" font-size="40" font-family="sans-serif" letter-spacing="0" word-spacing="0"><tspan x="795.596" y="1045.98">1</tspan></text><text style="line-height:1.25" x="811.35" y="1092.847" font-weight="400" font-size="40" font-family="sans-serif" letter-spacing="0" word-spacing="0"><tspan x="811.35" y="1092.847">3</tspan></text><text style="line-height:1.25" x="816.197" y="1141.734" font-weight="400" font-size="40" font-family="sans-serif" letter-spacing="0" word-spacing="0"><tspan x="816.197" y="1141.734">4</tspan></text><text style="line-height:1.25" x="797.212" y="1189.005" font-weight="400" font-size="40" font-family="sans-serif" letter-spacing="0" word-spacing="0"><tspan x="797.212" y="1189.005">1</tspan></text><text style="line-height:1.25" x="862.867" y="1238.906" font-weight="400" font-size="40" font-family="sans-serif" letter-spacing="0" word-spacing="0"><tspan x="862.867" y="1238.906">13</tspan></text><text style="line-height:1.25" x="801.655" y="1288.197" font-weight="400" font-size="40" font-family="sans-serif" letter-spacing="0" word-spacing="0"><tspan x="801.655" y="1288.197">2</tspan></text><text style="line-height:1.25" x="803.064" y="1334.867" font-weight="400" font-size="40" font-family="sans-serif" letter-spacing="0" word-spacing="0"><tspan x="803.064" y="1334.867">2</tspan></text><text style="line-height:1.28999996" x="1458.066" y="323.705" font-weight="400" font-size="37.333" font-family="sans-serif" letter-spacing="0" word-spacing="0"><tspan x="1458.066" y="323.705" style="text-align:center" text-anchor="middle">100 metres</tspan><tspan x="1458.066" y="371.865" style="text-align:center" text-anchor="middle">200 metres</tspan><tspan x="1458.066" y="420.025" style="text-align:center" text-anchor="middle">400 metres</tspan><tspan x="1458.066" y="468.185" style="text-align:center" text-anchor="middle">800 metres</tspan><tspan x="1458.066" y="516.345" style="text-align:center" text-anchor="middle">1500 metres</tspan><tspan x="1458.066" y="564.505" style="text-align:center" text-anchor="middle">5000 metres</tspan><tspan x="1458.066" y="612.665" style="text-align:center" text-anchor="middle">10000 metres</tspan><tspan x="1458.066" y="660.825" style="text-align:center" text-anchor="middle">100 m hurdles</tspan><tspan x="1458.066" y="708.985" style="text-align:center" text-anchor="middle">400 m hurdles</tspan><tspan x="1458.066" y="757.145" style="text-align:center" text-anchor="middle">3000 mtr steeplechase</tspan><tspan x="1458.066" y="805.305" style="text-align:center" text-anchor="middle">20 km racewalk</tspan><tspan x="1458.066" y="853.465" style="text-align:center" text-anchor="middle">Marathon</tspan><tspan x="1458.066" y="901.625" style="text-align:center" text-anchor="middle">Long jump</tspan><tspan x="1458.066" y="949.785" style="text-align:center" text-anchor="middle">High jump</tspan><tspan x="1458.066" y="997.945" style="text-align:center" text-anchor="middle">Triple jump</tspan><tspan x="1458.066" y="1046.105" style="text-align:center" text-anchor="middle">Discus throw</tspan><tspan x="1458.066" y="1094.265" style="text-align:center" text-anchor="middle">Hammer throw</tspan><tspan x="1458.066" y="1142.425" style="text-align:center" text-anchor="middle">Javelin throw</tspan><tspan x="1458.066" y="1190.585" style="text-align:center" text-anchor="middle">Pole Vault</tspan><tspan x="1458.066" y="1238.745" style="text-align:center" text-anchor="middle">Shot put</tspan><tspan x="1458.066" y="1286.905" style="text-align:center" text-anchor="middle">Heptathlon</tspan></text><text style="line-height:1.28999996;-inkscape-font-specification:'sans-serif, Normal';font-variant-ligatures:normal;font-variant-caps:normal;font-variant-numeric:normal;font-feature-settings:normal;text-align:start" x="1823.752" y="325.995" font-weight="400" font-size="37.333" font-family="sans-serif" letter-spacing="0" word-spacing="0"><tspan x="1823.752" y="325.995" style="text-align:center" text-anchor="middle">11.48 s</tspan><tspan x="1823.752" y="374.155" style="text-align:center" text-anchor="middle">23.02 s</tspan><tspan x="1823.752" y="422.315" style="text-align:center" text-anchor="middle">51.59 s</tspan><tspan x="1823.752" y="470.475" style="text-align:center" text-anchor="middle">01 m 59.02 s</tspan><tspan x="1823.752" y="518.635" style="text-align:center" text-anchor="middle">04 m 09.90 s</tspan><tspan x="1823.752" y="566.795" style="text-align:center" text-anchor="middle">14 m 59.69 s</tspan><tspan x="1823.752" y="614.955" style="text-align:center" text-anchor="middle">31 m 51.86 s</tspan><tspan x="1823.752" y="663.115" style="text-align:center" text-anchor="middle">12.72 s</tspan><tspan x="1823.752" y="711.275" style="text-align:center" text-anchor="middle">55.77 s</tspan><tspan x="1823.752" y="759.435" style="text-align:center" text-anchor="middle">09 m 31.36 s</tspan><tspan x="1823.752" y="807.595" style="text-align:center" text-anchor="middle">01 h 31 m 06 s</tspan><tspan x="1823.752" y="855.755" style="text-align:center" text-anchor="middle">02 h 25 m 37 s</tspan><tspan x="1823.752" y="903.915" style="text-align:center" text-anchor="middle">6.55 mtr</tspan><tspan x="1823.752" y="952.075" style="text-align:center" text-anchor="middle">1.94 mtr</tspan><tspan x="1823.752" y="1000.235" style="text-align:center" text-anchor="middle">14.32 mtr</tspan><tspan x="1823.752" y="1048.395" style="text-align:center" text-anchor="middle">61.03 mtr</tspan><tspan x="1823.752" y="1096.555" style="text-align:center" text-anchor="middle">77.33 mtr</tspan><tspan x="1823.752" y="1144.715" style="text-align:center" text-anchor="middle">65.47 mtr</tspan><tspan x="1823.752" y="1192.875" style="text-align:center" text-anchor="middle">4.35 mtr</tspan><tspan x="1823.752" y="1241.035" style="text-align:center" text-anchor="middle">19.06 mtr</tspan><tspan x="1823.752" y="1289.195" style="text-align:center" text-anchor="middle">5912 pts</tspan></text><text style="line-height:1.25" x="1815.828" y="224" font-weight="400" font-size="40" font-family="sans-serif" letter-spacing="0" word-spacing="0"><tspan x="1815.828" y="224" style="-inkscape-font-specification:'sans-serif, Bold';font-variant-ligatures:normal;font-variant-caps:normal;font-variant-numeric:normal;font-feature-settings:normal;text-align:center" font-weight="700" text-anchor="middle">Gold medal</tspan><tspan x="1815.828" y="274" style="-inkscape-font-specification:'sans-serif, Bold';font-variant-ligatures:normal;font-variant-caps:normal;font-variant-numeric:normal;font-feature-settings:normal;text-align:center" font-weight="700" text-anchor="middle">mark</tspan></text><text style="line-height:1.25" x="1398" y="228" font-weight="400" font-size="40" font-family="sans-serif" letter-spacing="0" word-spacing="0"><tspan x="1398" y="228" style="-inkscape-font-specification:'sans-serif, Bold';font-variant-ligatures:normal;font-variant-caps:normal;font-variant-numeric:normal;font-feature-settings:normal;text-align:start" font-weight="700">Event</tspan></text><text style="line-height:1.25" x="2328.02" y="323.713" font-weight="400" font-size="40" font-family="sans-serif" letter-spacing="0" word-spacing="0"><tspan x="2328.02" y="323.713">22</tspan></text><text style="line-height:1.25" x="2062.025" y="370.568" font-weight="400" font-size="40" font-family="sans-serif" letter-spacing="0" word-spacing="0"><tspan x="2062.025" y="370.568">5</tspan></text><text style="line-height:1.25" x="2045.729" y="417.14" font-weight="400" font-size="40" font-family="sans-serif" letter-spacing="0" word-spacing="0"><tspan x="2045.729" y="417.14">4</tspan></text><text style="line-height:1.25" x="1980.023" y="472.564" font-weight="400" font-size="40" font-family="sans-serif" letter-spacing="0" word-spacing="0"><tspan x="1980.023" y="472.564">0</tspan></text><text style="line-height:1.25" x="2046.872" y="515.998" font-weight="400" font-size="40" font-family="sans-serif" letter-spacing="0" word-spacing="0"><tspan x="2046.872" y="515.998">4</tspan></text><text style="line-height:1.25" x="2000.588" y="564.855" font-weight="400" font-size="40" font-family="sans-serif" letter-spacing="0" word-spacing="0"><tspan x="2000.588" y="564.855">1</tspan></text><text style="line-height:1.25" x="2173.733" y="611.139" font-weight="400" font-size="40" font-family="sans-serif" letter-spacing="0" word-spacing="0"><tspan x="2173.733" y="611.139">12</tspan></text><text style="line-height:1.25" x="1980.023" y="657.711" font-weight="400" font-size="40" font-family="sans-serif" letter-spacing="0" word-spacing="0"><tspan x="1980.023" y="657.711">0</tspan></text><text style="line-height:1.25" x="2014.298" y="708.854" font-weight="400" font-size="40" font-family="sans-serif" letter-spacing="0" word-spacing="0"><tspan x="2014.298" y="708.854">2</tspan></text><text style="line-height:1.25" x="2076.3" y="757.423" font-weight="400" font-size="40" font-family="sans-serif" letter-spacing="0" word-spacing="0"><tspan x="2076.3" y="757.423">6</tspan></text><text style="line-height:1.25" x="2335.164" y="802.281" font-weight="400" font-size="40" font-family="sans-serif" letter-spacing="0" word-spacing="0"><tspan x="2335.164" y="802.281">23</tspan></text><text style="line-height:1.25" x="2242.308" y="851.71" font-weight="400" font-size="40" font-family="sans-serif" letter-spacing="0" word-spacing="0"><tspan x="2242.308" y="851.71">17</tspan></text><text style="line-height:1.25" x="2074.581" y="900.285" font-weight="400" font-size="40" font-family="sans-serif" letter-spacing="0" word-spacing="0"><tspan x="2074.581" y="900.285">6</tspan></text><text style="line-height:1.25" x="1997.16" y="950.279" font-weight="400" font-size="40" font-family="sans-serif" letter-spacing="0" word-spacing="0"><tspan x="1997.16" y="950.279">1</tspan></text><text style="line-height:1.25" x="1996.589" y="996.28" font-weight="400" font-size="40" font-family="sans-serif" letter-spacing="0" word-spacing="0"><tspan x="1996.589" y="996.28">1</tspan></text><text style="line-height:1.25" x="2104.876" y="1046.28" font-weight="400" font-size="40" font-family="sans-serif" letter-spacing="0" word-spacing="0"><tspan x="2104.876" y="1046.28">8</tspan></text><text style="line-height:1.25" x="1981.448" y="1095.426" font-weight="400" font-size="40" font-family="sans-serif" letter-spacing="0" word-spacing="0"><tspan x="1981.448" y="1095.426">0</tspan></text><text style="line-height:1.25" x="2027.731" y="1140.856" font-weight="400" font-size="40" font-family="sans-serif" letter-spacing="0" word-spacing="0"><tspan x="2027.731" y="1140.856">3</tspan></text><text style="line-height:1.25" x="2060.299" y="1189.137" font-weight="400" font-size="40" font-family="sans-serif" letter-spacing="0" word-spacing="0"><tspan x="2060.299" y="1189.137">5</tspan></text><text style="line-height:1.25" x="2016.018" y="1238.283" font-weight="400" font-size="40" font-family="sans-serif" letter-spacing="0" word-spacing="0"><tspan x="2016.018" y="1238.283">2</tspan></text><text style="line-height:1.25" x="2014.304" y="1286.28" font-weight="400" font-size="40" font-family="sans-serif" letter-spacing="0" word-spacing="0"><tspan x="2014.304" y="1286.28">2</tspan></text><text style="line-height:1.25" x="620.553" y="224.304" font-weight="400" font-size="40" font-family="sans-serif" letter-spacing="0" word-spacing="0"><tspan x="620.553" y="224.304" style="-inkscape-font-specification:'sans-serif, Bold';font-variant-ligatures:normal;font-variant-caps:normal;font-variant-numeric:normal;font-feature-settings:normal;text-align:center" font-weight="700" text-anchor="middle">Gold medal</tspan><tspan x="620.553" y="274.304" style="-inkscape-font-specification:'sans-serif, Bold';font-variant-ligatures:normal;font-variant-caps:normal;font-variant-numeric:normal;font-feature-settings:normal;text-align:center" font-weight="700" text-anchor="middle">mark</tspan></text><text style="line-height:1.25" x="174.725" y="230.304" font-weight="400" font-size="40" font-family="sans-serif" letter-spacing="0" word-spacing="0"><tspan x="174.725" y="230.304" style="-inkscape-font-specification:'sans-serif, Bold';font-variant-ligatures:normal;font-variant-caps:normal;font-variant-numeric:normal;font-feature-settings:normal;text-align:start" font-weight="700">Event</tspan></text><text style="line-height:1.25" x="790" y="1390" font-weight="400" font-size="40" font-family="sans-serif" letter-spacing="0" word-spacing="0"><tspan x="790" y="1390">0</tspan></text><text style="line-height:1.25" x="876" y="1390" font-weight="400" font-size="40" font-family="sans-serif" letter-spacing="0" word-spacing="0"><tspan x="876" y="1390">20</tspan></text><text style="line-height:1.25" x="986" y="1390" font-weight="400" font-size="40" font-family="sans-serif" letter-spacing="0" word-spacing="0"><tspan x="986" y="1390">40</tspan></text><text style="line-height:1.25" x="1100" y="1390" font-weight="400" font-size="40" font-family="sans-serif" letter-spacing="0" word-spacing="0"><tspan x="1100" y="1390">60</tspan></text><text style="line-height:1.25" x="1982" y="1342" font-weight="400" font-size="40" font-family="sans-serif" letter-spacing="0" word-spacing="0"><tspan x="1982" y="1342">0</tspan></text><text style="line-height:1.25" x="2108" y="1342" font-weight="400" font-size="40" font-family="sans-serif" letter-spacing="0" word-spacing="0"><tspan x="2108" y="1342">10</tspan></text><text style="line-height:1.25" x="2266" y="1342" font-weight="400" font-size="40" font-family="sans-serif" letter-spacing="0" word-spacing="0"><tspan x="2266" y="1342">20</tspan></text><text style="line-height:1.25" x="803" y="1448" font-weight="400" font-size="29.333" font-family="sans-serif" letter-spacing="0" word-spacing="0"><tspan x="803" y="1448" style="-inkscape-font-specification:'sans-serif Bold'" font-weight="700">Number of athletes</tspan></text><text style="line-height:1.25" x="1986.202" y="1388.911" font-weight="400" font-size="29.333" font-family="sans-serif" letter-spacing="0" word-spacing="0"><tspan x="1986.202" y="1388.911" style="-inkscape-font-specification:'sans-serif Bold'" font-weight="700">Number of athletes</tspan></text><path d="M1218 1448V40" fill="none" stroke="#66b4cd" stroke-width="1.5"/><text style="line-height:1.25;-inkscape-font-specification:'sans-serif, Normal';font-variant-ligatures:normal;font-variant-caps:normal;font-variant-numeric:normal;font-feature-settings:normal;text-align:start" x="29.364" y="1497.261" font-weight="400" font-size="32" font-family="sans-serif" letter-spacing="0" word-spacing="0"><tspan x="29.364" y="1497.261"><tspan style="-inkscape-font-specification:'sans-serif Bold'" font-weight="700">Note</tspan>: h - hours, m - minutes, mtr - metres, pts - points, s - seconds</tspan></text><text style="line-height:1.25;-inkscape-font-specification:'sans-serif Bold';font-variant-ligatures:normal;font-variant-caps:normal;font-variant-numeric:normal;font-feature-settings:normal;text-align:start" x="112.999" y="52.285" font-weight="700" font-size="37.333" font-family="sans-serif" letter-spacing="0" word-spacing="0"><tspan x="112.999" y="52.285" style="-inkscape-font-specification:'sans-serif, Bold';font-variant-ligatures:normal;font-variant-caps:normal;font-variant-numeric:normal;font-feature-settings:normal;text-align:start">How many Asian male athletes have bettered the</tspan><tspan x="112.999" y="98.952" style="-inkscape-font-specification:'sans-serif, Bold';font-variant-ligatures:normal;font-variant-caps:normal;font-variant-numeric:normal;font-feature-settings:normal;text-align:start">2014 Asian Games gold-medal mark over </tspan><tspan x="112.999" y="145.618" style="-inkscape-font-specification:'sans-serif, Bold';font-variant-ligatures:normal;font-variant-caps:normal;font-variant-numeric:normal;font-feature-settings:normal;text-align:start">the period 2016-18?</tspan></text><text style="line-height:1.25;-inkscape-font-specification:'sans-serif Bold';font-variant-ligatures:normal;font-variant-caps:normal;font-variant-numeric:normal;font-feature-settings:normal;text-align:start" x="1274.999" y="52.285" font-weight="700" font-size="37.333" font-family="sans-serif" letter-spacing="0" word-spacing="0"><tspan x="1274.999" y="52.285" style="-inkscape-font-specification:'sans-serif, Bold';font-variant-ligatures:normal;font-variant-caps:normal;font-variant-numeric:normal;font-feature-settings:normal;text-align:start">How many Asian female athletes have bettered the</tspan><tspan x="1274.999" y="98.952" style="-inkscape-font-specification:'sans-serif, Bold';font-variant-ligatures:normal;font-variant-caps:normal;font-variant-numeric:normal;font-feature-settings:normal;text-align:start">2014 Asian Games gold-medal mark over </tspan><tspan x="1274.999" y="145.618" style="-inkscape-font-specification:'sans-serif, Bold';font-variant-ligatures:normal;font-variant-caps:normal;font-variant-numeric:normal;font-feature-settings:normal;text-align:start">the period 2016-18?</tspan></text><text style="line-height:1.28999996;-inkscape-font-specification:'sans-serif, Normal';font-variant-ligatures:normal;font-variant-caps:normal;font-variant-numeric:normal;font-feature-settings:normal;text-align:start" x="251.323" y="325.442" font-weight="400" font-size="13.333" font-family="sans-serif" letter-spacing="0" word-spacing="0"><tspan x="251.323" y="325.442" style="-inkscape-font-specification:'sans-serif, Normal';font-variant-ligatures:normal;font-variant-caps:normal;font-variant-numeric:normal;font-feature-settings:normal;text-align:center" font-size="37.333" text-anchor="middle">100 metres</tspan><tspan x="251.323" y="373.602" style="-inkscape-font-specification:'sans-serif, Normal';font-variant-ligatures:normal;font-variant-caps:normal;font-variant-numeric:normal;font-feature-settings:normal;text-align:center" font-size="37.333" text-anchor="middle">200 metres</tspan><tspan x="251.323" y="421.762" style="-inkscape-font-specification:'sans-serif, Normal';font-variant-ligatures:normal;font-variant-caps:normal;font-variant-numeric:normal;font-feature-settings:normal;text-align:center" font-size="37.333" text-anchor="middle">400 metres</tspan><tspan x="251.323" y="469.922" style="-inkscape-font-specification:'sans-serif, Normal';font-variant-ligatures:normal;font-variant-caps:normal;font-variant-numeric:normal;font-feature-settings:normal;text-align:center" font-size="37.333" text-anchor="middle">800 metres</tspan><tspan x="251.323" y="518.082" style="-inkscape-font-specification:'sans-serif, Normal';font-variant-ligatures:normal;font-variant-caps:normal;font-variant-numeric:normal;font-feature-settings:normal;text-align:center" font-size="37.333" text-anchor="middle">1500 metres</tspan><tspan x="251.323" y="566.242" style="-inkscape-font-specification:'sans-serif, Normal';font-variant-ligatures:normal;font-variant-caps:normal;font-variant-numeric:normal;font-feature-settings:normal;text-align:center" font-size="37.333" text-anchor="middle">5000 metres</tspan><tspan x="251.323" y="614.402" style="-inkscape-font-specification:'sans-serif, Normal';font-variant-ligatures:normal;font-variant-caps:normal;font-variant-numeric:normal;font-feature-settings:normal;text-align:center" font-size="37.333" text-anchor="middle">10000 metres</tspan><tspan x="251.323" y="662.562" style="-inkscape-font-specification:'sans-serif, Normal';font-variant-ligatures:normal;font-variant-caps:normal;font-variant-numeric:normal;font-feature-settings:normal;text-align:center" font-size="37.333" text-anchor="middle">110 m hurdles</tspan><tspan x="251.323" y="710.722" style="-inkscape-font-specification:'sans-serif, Normal';font-variant-ligatures:normal;font-variant-caps:normal;font-variant-numeric:normal;font-feature-settings:normal;text-align:center" font-size="37.333" text-anchor="middle">400 m hurdles</tspan><tspan x="251.323" y="758.882" style="-inkscape-font-specification:'sans-serif, Normal';font-variant-ligatures:normal;font-variant-caps:normal;font-variant-numeric:normal;font-feature-settings:normal;text-align:center" font-size="37.333" text-anchor="middle">3000 mtr steeplechase</tspan><tspan x="251.323" y="807.042" style="-inkscape-font-specification:'sans-serif, Normal';font-variant-ligatures:normal;font-variant-caps:normal;font-variant-numeric:normal;font-feature-settings:normal;text-align:center" font-size="37.333" text-anchor="middle">20 km race walk</tspan><tspan x="251.323" y="855.202" style="-inkscape-font-specification:'sans-serif, Normal';font-variant-ligatures:normal;font-variant-caps:normal;font-variant-numeric:normal;font-feature-settings:normal;text-align:center" font-size="37.333" text-anchor="middle">50 km race walk</tspan><tspan x="251.323" y="903.362" style="-inkscape-font-specification:'sans-serif, Normal';font-variant-ligatures:normal;font-variant-caps:normal;font-variant-numeric:normal;font-feature-settings:normal;text-align:center" font-size="37.333" text-anchor="middle">Marathon</tspan><tspan x="251.323" y="951.522" style="-inkscape-font-specification:'sans-serif, Normal';font-variant-ligatures:normal;font-variant-caps:normal;font-variant-numeric:normal;font-feature-settings:normal;text-align:center" font-size="37.333" text-anchor="middle">Long Jump</tspan><tspan x="251.323" y="999.682" style="-inkscape-font-specification:'sans-serif, Normal';font-variant-ligatures:normal;font-variant-caps:normal;font-variant-numeric:normal;font-feature-settings:normal;text-align:center" font-size="37.333" text-anchor="middle">High Jump</tspan><tspan x="251.323" y="1047.842" style="-inkscape-font-specification:'sans-serif, Normal';font-variant-ligatures:normal;font-variant-caps:normal;font-variant-numeric:normal;font-feature-settings:normal;text-align:center" font-size="37.333" text-anchor="middle">Triple Jump</tspan><tspan x="251.323" y="1096.002" style="-inkscape-font-specification:'sans-serif, Normal';font-variant-ligatures:normal;font-variant-caps:normal;font-variant-numeric:normal;font-feature-settings:normal;text-align:center" font-size="37.333" text-anchor="middle">Discus throw</tspan><tspan x="251.323" y="1144.162" style="-inkscape-font-specification:'sans-serif, Normal';font-variant-ligatures:normal;font-variant-caps:normal;font-variant-numeric:normal;font-feature-settings:normal;text-align:center" font-size="37.333" text-anchor="middle">Hammer throw</tspan><tspan x="251.323" y="1192.322" style="-inkscape-font-specification:'sans-serif, Normal';font-variant-ligatures:normal;font-variant-caps:normal;font-variant-numeric:normal;font-feature-settings:normal;text-align:center" font-size="37.333" text-anchor="middle">Javelin throw</tspan><tspan x="251.323" y="1240.482" style="-inkscape-font-specification:'sans-serif, Normal';font-variant-ligatures:normal;font-variant-caps:normal;font-variant-numeric:normal;font-feature-settings:normal;text-align:center" font-size="37.333" text-anchor="middle">Pole Vault</tspan><tspan x="257.266" y="1288.642" style="-inkscape-font-specification:'sans-serif, Normal';font-variant-ligatures:normal;font-variant-caps:normal;font-variant-numeric:normal;font-feature-settings:normal;text-align:center" font-size="37.333" text-anchor="middle">Shot put </tspan><tspan x="251.323" y="1336.802" style="-inkscape-font-specification:'sans-serif, Normal';font-variant-ligatures:normal;font-variant-caps:normal;font-variant-numeric:normal;font-feature-settings:normal;text-align:center" font-size="37.333" text-anchor="middle">Decathlon</tspan></text><text style="line-height:1.28999996;-inkscape-font-specification:'sans-serif, Normal';font-variant-ligatures:normal;font-variant-caps:normal;font-variant-numeric:normal;font-feature-settings:normal;text-align:start" x="630.346" y="325.782" font-weight="400" font-size="13.333" font-family="sans-serif" letter-spacing="0" word-spacing="0"><tspan x="630.346" y="325.782" style="-inkscape-font-specification:'sans-serif, Normal';font-variant-ligatures:normal;font-variant-caps:normal;font-variant-numeric:normal;font-feature-settings:normal;text-align:center" font-size="37.333" text-anchor="middle">9.93 s</tspan><tspan x="630.346" y="373.942" style="-inkscape-font-specification:'sans-serif, Normal';font-variant-ligatures:normal;font-variant-caps:normal;font-variant-numeric:normal;font-feature-settings:normal;text-align:center" font-size="37.333" text-anchor="middle">20.14s</tspan><tspan x="630.346" y="422.102" style="-inkscape-font-specification:'sans-serif, Normal';font-variant-ligatures:normal;font-variant-caps:normal;font-variant-numeric:normal;font-feature-settings:normal;text-align:center" font-size="37.333" text-anchor="middle">44.46 s</tspan><tspan x="630.346" y="470.262" style="-inkscape-font-specification:'sans-serif, Normal';font-variant-ligatures:normal;font-variant-caps:normal;font-variant-numeric:normal;font-feature-settings:normal;text-align:center" font-size="37.333" text-anchor="middle">01 m 47.48 s</tspan><tspan x="630.346" y="518.422" style="-inkscape-font-specification:'sans-serif, Normal';font-variant-ligatures:normal;font-variant-caps:normal;font-variant-numeric:normal;font-feature-settings:normal;text-align:center" font-size="37.333" text-anchor="middle">03 m 40.23 s</tspan><tspan x="630.346" y="566.582" style="-inkscape-font-specification:'sans-serif, Normal';font-variant-ligatures:normal;font-variant-caps:normal;font-variant-numeric:normal;font-feature-settings:normal;text-align:center" font-size="37.333" text-anchor="middle">13 m 26.13 s</tspan><tspan x="630.346" y="614.742" style="-inkscape-font-specification:'sans-serif, Normal';font-variant-ligatures:normal;font-variant-caps:normal;font-variant-numeric:normal;font-feature-settings:normal;text-align:center" font-size="37.333" text-anchor="middle">28 m 11.20 s</tspan><tspan x="630.346" y="662.902" style="-inkscape-font-specification:'sans-serif, Normal';font-variant-ligatures:normal;font-variant-caps:normal;font-variant-numeric:normal;font-feature-settings:normal;text-align:center" font-size="37.333" text-anchor="middle">13.36 s</tspan><tspan x="630.346" y="711.062" style="-inkscape-font-specification:'sans-serif, Normal';font-variant-ligatures:normal;font-variant-caps:normal;font-variant-numeric:normal;font-feature-settings:normal;text-align:center" font-size="37.333" text-anchor="middle">49.71 s</tspan><tspan x="630.346" y="759.222" style="-inkscape-font-specification:'sans-serif, Normal';font-variant-ligatures:normal;font-variant-caps:normal;font-variant-numeric:normal;font-feature-settings:normal;text-align:center" font-size="37.333" text-anchor="middle">08 m 28.72 s</tspan><tspan x="630.346" y="807.382" style="-inkscape-font-specification:'sans-serif, Normal';font-variant-ligatures:normal;font-variant-caps:normal;font-variant-numeric:normal;font-feature-settings:normal;text-align:center" font-size="37.333" text-anchor="middle">01 h 19 m 45 s</tspan><tspan x="630.346" y="855.542" style="-inkscape-font-specification:'sans-serif, Normal';font-variant-ligatures:normal;font-variant-caps:normal;font-variant-numeric:normal;font-feature-settings:normal;text-align:center" font-size="37.333" text-anchor="middle">03 h 40 m 19 s</tspan><tspan x="630.346" y="903.702" style="-inkscape-font-specification:'sans-serif, Normal';font-variant-ligatures:normal;font-variant-caps:normal;font-variant-numeric:normal;font-feature-settings:normal;text-align:center" font-size="37.333" text-anchor="middle">02 h 12 m 38 s</tspan><tspan x="630.346" y="951.862" style="-inkscape-font-specification:'sans-serif, Normal';font-variant-ligatures:normal;font-variant-caps:normal;font-variant-numeric:normal;font-feature-settings:normal;text-align:center" font-size="37.333" text-anchor="middle">8.01 mtr</tspan><tspan x="630.346" y="1000.022" style="-inkscape-font-specification:'sans-serif, Normal';font-variant-ligatures:normal;font-variant-caps:normal;font-variant-numeric:normal;font-feature-settings:normal;text-align:center" font-size="37.333" text-anchor="middle">2.35 mtr</tspan><tspan x="630.346" y="1048.182" style="-inkscape-font-specification:'sans-serif, Normal';font-variant-ligatures:normal;font-variant-caps:normal;font-variant-numeric:normal;font-feature-settings:normal;text-align:center" font-size="37.333" text-anchor="middle">17.3 mtr</tspan><tspan x="630.346" y="1096.342" style="-inkscape-font-specification:'sans-serif, Normal';font-variant-ligatures:normal;font-variant-caps:normal;font-variant-numeric:normal;font-feature-settings:normal;text-align:center" font-size="37.333" text-anchor="middle">65.11 mtr</tspan><tspan x="630.346" y="1144.502" style="-inkscape-font-specification:'sans-serif, Normal';font-variant-ligatures:normal;font-variant-caps:normal;font-variant-numeric:normal;font-feature-settings:normal;text-align:center" font-size="37.333" text-anchor="middle">76.82 mtr</tspan><tspan x="630.346" y="1192.662" style="-inkscape-font-specification:'sans-serif, Normal';font-variant-ligatures:normal;font-variant-caps:normal;font-variant-numeric:normal;font-feature-settings:normal;text-align:center" font-size="37.333" text-anchor="middle">89.15 mtr</tspan><tspan x="630.346" y="1240.822" style="-inkscape-font-specification:'sans-serif, Normal';font-variant-ligatures:normal;font-variant-caps:normal;font-variant-numeric:normal;font-feature-settings:normal;text-align:center" font-size="37.333" text-anchor="middle">5.55 mtr</tspan><tspan x="630.346" y="1288.982" style="-inkscape-font-specification:'sans-serif, Normal';font-variant-ligatures:normal;font-variant-caps:normal;font-variant-numeric:normal;font-feature-settings:normal;text-align:center" font-size="37.333" text-anchor="middle">19.99 mtr</tspan><tspan x="630.346" y="1337.142" style="-inkscape-font-specification:'sans-serif, Normal';font-variant-ligatures:normal;font-variant-caps:normal;font-variant-numeric:normal;font-feature-settings:normal;text-align:center" font-size="37.333" text-anchor="middle">8088 pts</tspan></text></svg>