<svg xmlns="http://www.w3.org/2000/svg" version="1.2" width="1176.34" height="501.39mm" viewBox="-1196 -4376 31124 50139" preserveAspectRatio="xMidYMid" fill-rule="evenodd" stroke-width="28.222" stroke-linejoin="round"><defs class="ClipPathGroup"><clipPath id="a"><path d="M-1196-4376h31124v50139H-1196z"/></clipPath></defs><g class="SlideGroup"><g class="Slide" clip-path="url(#a)"><g class="Page"><g class="com.sun.star.drawing.TableShape"><path class="BoundingBox" fill="none" d="M-1196-4376h31126v50140H-1196z"/><path fill="#66B4CD" d="M-1143-4323h31044v3960H-1143v-3960z"/><text class="TextShape"><tspan class="TextParagraph" font-family="Liberation Sans, sans-serif" font-size="847" font-weight="700"><tspan class="TextPosition" x="4518" y="-2601"><tspan>Indian athletes with a good chance of winning an</tspan></tspan><tspan class="TextPosition" x="4132" y="-1407"><tspan>individual athletics medal at the 2018 Asian Games</tspan></tspan></tspan></text><path fill="#66B4CD" d="M-1143-363h5565v7421h-5565V-363z"/><text class="TextShape"><tspan class="TextParagraph" font-family="Liberation Sans, sans-serif" font-size="635" font-weight="700"><tspan class="TextPosition" x="-409" y="3510"><tspan>Indian athlete</tspan></tspan></tspan></text><path fill="#66B4CD" d="M4422-363h2827v7421H4422V-363z"/><text class="TextShape"><tspan class="TextParagraph" font-family="Liberation Sans, sans-serif" font-size="635" font-weight="700"><tspan class="TextPosition" x="4724" y="3510"><tspan>Gender</tspan></tspan></tspan></text><path fill="#66B4CD" d="M7249-363h4567v7421H7249V-363z"/><text class="TextShape"><tspan class="TextParagraph" font-family="Liberation Sans, sans-serif" font-size="635" font-weight="700"><tspan class="TextPosition" x="8669" y="3510"><tspan>Event</tspan></tspan></tspan></text><path fill="#66B4CD" d="M11816-363h4458v7421h-4458V-363z"/><text class="TextShape"><tspan class="TextParagraph" font-family="Liberation Sans, sans-serif" font-size="635" font-weight="700"><tspan class="TextPosition" x="13359" y="1809"><tspan>Best </tspan></tspan><tspan class="TextPosition" x="12125" y="2704"><tspan>performance </tspan></tspan><tspan class="TextPosition" x="12083" y="3599"><tspan>by the Indian </tspan></tspan><tspan class="TextPosition" x="12123" y="4494"><tspan>athlete since </tspan></tspan><tspan class="TextPosition" x="12354" y="5389"><tspan>Jan 1, 2016</tspan></tspan></tspan></text><path fill="#66B4CD" d="M16274-363h4458v7421h-4458V-363z"/><text class="TextShape"><tspan class="TextParagraph" font-family="Liberation Sans, sans-serif" font-size="635" font-weight="700"><tspan class="TextPosition" x="16662" y="914"><tspan>No. of Asian </tspan></tspan><tspan class="TextPosition" x="16579" y="1809"><tspan>athletes with </tspan></tspan><tspan class="TextPosition" x="16808" y="2704"><tspan>an equal or </tspan></tspan><tspan class="TextPosition" x="17623" y="3599"><tspan>better </tspan></tspan><tspan class="TextPosition" x="16583" y="4494"><tspan>performance </tspan></tspan><tspan class="TextPosition" x="16704" y="5389"><tspan>since Jan 1, </tspan></tspan><tspan class="TextPosition" x="17801" y="6284"><tspan>2016</tspan></tspan></tspan></text><path fill="#66B4CD" d="M20732-363h4784v7421h-4784V-363z"/><text class="TextShape"><tspan class="TextParagraph" font-family="Liberation Sans, sans-serif" font-size="635" font-weight="700"><tspan class="TextPosition" x="21306" y="467"><tspan>The number </tspan></tspan><tspan class="TextPosition" x="21888" y="1362"><tspan>of those </tspan></tspan><tspan class="TextPosition" x="22261" y="2257"><tspan>Asian </tspan></tspan><tspan class="TextPosition" x="21467" y="3152"><tspan>athletes, at </tspan></tspan><tspan class="TextPosition" x="21552" y="4047"><tspan>most, who </tspan></tspan><tspan class="TextPosition" x="21147" y="4942"><tspan>could appear </tspan></tspan><tspan class="TextPosition" x="21338" y="5837"><tspan>at the Asian </tspan></tspan><tspan class="TextPosition" x="22068" y="6732"><tspan>Games</tspan></tspan></tspan></text><path fill="#66B4CD" d="M25516-363h4385v7421h-4385V-363z"/><text class="TextShape"><tspan class="TextParagraph" font-family="Liberation Sans, sans-serif" font-size="635" font-weight="700"><tspan class="TextPosition" x="26174" y="1362"><tspan>Chance of </tspan></tspan><tspan class="TextPosition" x="26771" y="2257"><tspan>Indian </tspan></tspan><tspan class="TextPosition" x="26686" y="3152"><tspan>athlete </tspan></tspan><tspan class="TextPosition" x="26134" y="4047"><tspan>winning at </tspan></tspan><tspan class="TextPosition" x="26722" y="4942"><tspan>least a </tspan></tspan><tspan class="TextPosition" x="26667" y="5837"><tspan>bronze</tspan></tspan></tspan></text><path fill="#CCE6EE" d="M-1143 7058h5565v2052h-5565V7058z"/><text class="TextShape"><tspan class="TextParagraph" font-family="Liberation Sans, sans-serif" font-size="635" font-weight="400"><tspan class="TextPosition" x="-166" y="8247"><tspan>Tejinder Toor</tspan></tspan></tspan></text><path fill="#CCE6EE" d="M4422 7058h2827v2052H4422V7058z"/><text class="TextShape"><tspan class="TextParagraph" font-family="Liberation Sans, sans-serif" font-size="635" font-weight="400"><tspan class="TextPosition" x="5220" y="8247"><tspan>men</tspan></tspan></tspan></text><path fill="#CCE6EE" d="M7249 7058h4567v2052H7249V7058z"/><text class="TextShape"><tspan class="TextParagraph" font-family="Liberation Sans, sans-serif" font-size="635" font-weight="400"><tspan class="TextPosition" x="8352" y="8247"><tspan>Shot put</tspan></tspan></tspan></text><path fill="#CCE6EE" d="M11816 7058h4458v2052h-4458V7058z"/><text class="TextShape"><tspan class="TextParagraph" font-family="Liberation Sans, sans-serif" font-size="635" font-weight="400"><tspan class="TextPosition" x="12881" y="8247"><tspan>20.4 mtr</tspan></tspan></tspan></text><path fill="#CCE6EE" d="M16274 7058h4458v2052h-4458V7058z"/><text class="TextShape"><tspan class="TextParagraph" font-family="Liberation Sans, sans-serif" font-size="635" font-weight="400"><tspan class="TextPosition" x="18328" y="8247"><tspan>0</tspan></tspan></tspan></text><path fill="#CCE6EE" d="M20732 7058h4784v2052h-4784V7058z"/><text class="TextShape"><tspan class="TextParagraph" font-family="Liberation Sans, sans-serif" font-size="635" font-weight="700"><tspan class="TextPosition" x="22949" y="8247"><tspan>0</tspan></tspan></tspan></text><path fill="#CCE6EE" d="M25516 7058h4385v2052h-4385V7058z"/><text class="TextShape"><tspan class="TextParagraph" font-family="Liberation Sans, sans-serif" font-size="635" font-weight="700"><tspan class="TextPosition" x="26877" y="8247"><tspan>Good</tspan></tspan></tspan></text><path fill="#CCE6EE" d="M-1143 9110h5565v2052h-5565V9110z"/><text class="TextShape"><tspan class="TextParagraph" font-family="Liberation Sans, sans-serif" font-size="635" font-weight="400"><tspan class="TextPosition" x="-559" y="10299"><tspan>Jinson Johnson</tspan></tspan></tspan></text><path fill="#CCE6EE" d="M4422 9110h2827v2052H4422V9110z"/><text class="TextShape"><tspan class="TextParagraph" font-family="Liberation Sans, sans-serif" font-size="635" font-weight="400"><tspan class="TextPosition" x="5220" y="10299"><tspan>men</tspan></tspan></tspan></text><path fill="#CCE6EE" d="M7249 9110h4567v2052H7249V9110z"/><text class="TextShape"><tspan class="TextParagraph" font-family="Liberation Sans, sans-serif" font-size="635" font-weight="400"><tspan class="TextPosition" x="7947" y="10299"><tspan>800 metres</tspan></tspan></tspan></text><path fill="#CCE6EE" d="M11816 9110h4458v2052h-4458V9110z"/><text class="TextShape"><tspan class="TextParagraph" font-family="Liberation Sans, sans-serif" font-size="635" font-weight="400"><tspan class="TextPosition" x="12388" y="10299"><tspan>1 m 45.65 s</tspan></tspan></tspan></text><path fill="#CCE6EE" d="M16274 9110h4458v2052h-4458V9110z"/><text class="TextShape"><tspan class="TextParagraph" font-family="Liberation Sans, sans-serif" font-size="635" font-weight="400"><tspan class="TextPosition" x="18328" y="10299"><tspan>1</tspan></tspan></tspan></text><path fill="#CCE6EE" d="M20732 9110h4784v2052h-4784V9110z"/><text class="TextShape"><tspan class="TextParagraph" font-family="Liberation Sans, sans-serif" font-size="635" font-weight="700"><tspan class="TextPosition" x="22949" y="10299"><tspan>1</tspan></tspan></tspan></text><path fill="#CCE6EE" d="M25516 9110h4385v2052h-4385V9110z"/><text class="TextShape"><tspan class="TextParagraph" font-family="Liberation Sans, sans-serif" font-size="635" font-weight="700"><tspan class="TextPosition" x="26877" y="10299"><tspan>Good</tspan></tspan></tspan></text><path fill="#CCE6EE" d="M-1143 11162h5565v2052h-5565v-2052z"/><text class="TextShape"><tspan class="TextParagraph" font-family="Liberation Sans, sans-serif" font-size="635" font-weight="400"><tspan class="TextPosition" x="-418" y="12351"><tspan>Neeraj Chopra</tspan></tspan></tspan></text><path fill="#CCE6EE" d="M4422 11162h2827v2052H4422v-2052z"/><text class="TextShape"><tspan class="TextParagraph" font-family="Liberation Sans, sans-serif" font-size="635" font-weight="400"><tspan class="TextPosition" x="5220" y="12351"><tspan>men</tspan></tspan></tspan></text><path fill="#CCE6EE" d="M7249 11162h4567v2052H7249v-2052z"/><text class="TextShape"><tspan class="TextParagraph" font-family="Liberation Sans, sans-serif" font-size="635" font-weight="400"><tspan class="TextPosition" x="7685" y="12351"><tspan>Javelin throw</tspan></tspan></tspan></text><path fill="#CCE6EE" d="M11816 11162h4458v2052h-4458v-2052z"/><text class="TextShape"><tspan class="TextParagraph" font-family="Liberation Sans, sans-serif" font-size="635" font-weight="400"><tspan class="TextPosition" x="12705" y="12351"><tspan>87.43 mtr</tspan></tspan></tspan></text><path fill="#CCE6EE" d="M16274 11162h4458v2052h-4458v-2052z"/><text class="TextShape"><tspan class="TextParagraph" font-family="Liberation Sans, sans-serif" font-size="635" font-weight="400"><tspan class="TextPosition" x="18328" y="12351"><tspan>1</tspan></tspan></tspan></text><path fill="#CCE6EE" d="M20732 11162h4784v2052h-4784v-2052z"/><text class="TextShape"><tspan class="TextParagraph" font-family="Liberation Sans, sans-serif" font-size="635" font-weight="700"><tspan class="TextPosition" x="22949" y="12351"><tspan>1</tspan></tspan></tspan></text><path fill="#CCE6EE" d="M25516 11162h4385v2052h-4385v-2052z"/><text class="TextShape"><tspan class="TextParagraph" font-family="Liberation Sans, sans-serif" font-size="635" font-weight="700"><tspan class="TextPosition" x="26877" y="12351"><tspan>Good</tspan></tspan></tspan></text><path fill="#CCE6EE" d="M-1143 13214h5565v2052h-5565v-2052z"/><text class="TextShape"><tspan class="TextParagraph" font-family="Liberation Sans, sans-serif" font-size="635" font-weight="400"><tspan class="TextPosition" x="-701" y="14403"><tspan>Swapna Barman</tspan></tspan></tspan></text><path fill="#CCE6EE" d="M4422 13214h2827v2052H4422v-2052z"/><text class="TextShape"><tspan class="TextParagraph" font-family="Liberation Sans, sans-serif" font-size="635" font-weight="400"><tspan class="TextPosition" x="4816" y="14403"><tspan>women</tspan></tspan></tspan></text><path fill="#CCE6EE" d="M7249 13214h4567v2052H7249v-2052z"/><text class="TextShape"><tspan class="TextParagraph" font-family="Liberation Sans, sans-serif" font-size="635" font-weight="400"><tspan class="TextPosition" x="7827" y="14403"><tspan>Heptathalon</tspan></tspan></tspan></text><path fill="#CCE6EE" d="M11816 13214h4458v2052h-4458v-2052z"/><text class="TextShape"><tspan class="TextParagraph" font-family="Liberation Sans, sans-serif" font-size="635" font-weight="400"><tspan class="TextPosition" x="12830" y="14403"><tspan>5942 pts</tspan></tspan></tspan></text><path fill="#CCE6EE" d="M16274 13214h4458v2052h-4458v-2052z"/><text class="TextShape"><tspan class="TextParagraph" font-family="Liberation Sans, sans-serif" font-size="635" font-weight="400"><tspan class="TextPosition" x="18328" y="14403"><tspan>1</tspan></tspan></tspan></text><path fill="#CCE6EE" d="M20732 13214h4784v2052h-4784v-2052z"/><text class="TextShape"><tspan class="TextParagraph" font-family="Liberation Sans, sans-serif" font-size="635" font-weight="700"><tspan class="TextPosition" x="22949" y="14403"><tspan>1</tspan></tspan></tspan></text><path fill="#CCE6EE" d="M25516 13214h4385v2052h-4385v-2052z"/><text class="TextShape"><tspan class="TextParagraph" font-family="Liberation Sans, sans-serif" font-size="635" font-weight="700"><tspan class="TextPosition" x="26877" y="14403"><tspan>Good</tspan></tspan></tspan></text><path fill="#CCE6EE" d="M-1143 15266h5565v2052h-5565v-2052z"/><text class="TextShape"><tspan class="TextParagraph" font-family="Liberation Sans, sans-serif" font-size="635" font-weight="400"><tspan class="TextPosition" x="-559" y="16455"><tspan>Jinson Johnson</tspan></tspan></tspan></text><path fill="#CCE6EE" d="M4422 15266h2827v2052H4422v-2052z"/><text class="TextShape"><tspan class="TextParagraph" font-family="Liberation Sans, sans-serif" font-size="635" font-weight="400"><tspan class="TextPosition" x="5220" y="16455"><tspan>men</tspan></tspan></tspan></text><path fill="#CCE6EE" d="M7249 15266h4567v2052H7249v-2052z"/><text class="TextShape"><tspan class="TextParagraph" font-family="Liberation Sans, sans-serif" font-size="635" font-weight="400"><tspan class="TextPosition" x="7772" y="16455"><tspan>1500 metres</tspan></tspan></tspan></text><path fill="#CCE6EE" d="M11816 15266h4458v2052h-4458v-2052z"/><text class="TextShape"><tspan class="TextParagraph" font-family="Liberation Sans, sans-serif" font-size="635" font-weight="400"><tspan class="TextPosition" x="12388" y="16455"><tspan>3 m 37.86 s</tspan></tspan></tspan></text><path fill="#CCE6EE" d="M16274 15266h4458v2052h-4458v-2052z"/><text class="TextShape"><tspan class="TextParagraph" font-family="Liberation Sans, sans-serif" font-size="635" font-weight="400"><tspan class="TextPosition" x="18328" y="16455"><tspan>4</tspan></tspan></tspan></text><path fill="#CCE6EE" d="M20732 15266h4784v2052h-4784v-2052z"/><text class="TextShape"><tspan class="TextParagraph" font-family="Liberation Sans, sans-serif" font-size="635" font-weight="700"><tspan class="TextPosition" x="22949" y="16455"><tspan>1</tspan></tspan></tspan></text><path fill="#CCE6EE" d="M25516 15266h4385v2052h-4385v-2052z"/><text class="TextShape"><tspan class="TextParagraph" font-family="Liberation Sans, sans-serif" font-size="635" font-weight="700"><tspan class="TextPosition" x="26877" y="16455"><tspan>Good</tspan></tspan></tspan></text><path fill="#CCE6EE" d="M-1143 17318h5565v2052h-5565v-2052z"/><text class="TextShape"><tspan class="TextParagraph" font-family="Liberation Sans, sans-serif" font-size="635" font-weight="400"><tspan class="TextPosition" x="249" y="18507"><tspan>Hima Das</tspan></tspan></tspan></text><path fill="#CCE6EE" d="M4422 17318h2827v2052H4422v-2052z"/><text class="TextShape"><tspan class="TextParagraph" font-family="Liberation Sans, sans-serif" font-size="635" font-weight="400"><tspan class="TextPosition" x="4816" y="18507"><tspan>women</tspan></tspan></tspan></text><path fill="#CCE6EE" d="M7249 17318h4567v2052H7249v-2052z"/><text class="TextShape"><tspan class="TextParagraph" font-family="Liberation Sans, sans-serif" font-size="635" font-weight="400"><tspan class="TextPosition" x="7947" y="18507"><tspan>400 metres</tspan></tspan></tspan></text><path fill="#CCE6EE" d="M11816 17318h4458v2052h-4458v-2052z"/><text class="TextShape"><tspan class="TextParagraph" font-family="Liberation Sans, sans-serif" font-size="635" font-weight="400"><tspan class="TextPosition" x="13006" y="18507"><tspan>51.13 s</tspan></tspan></tspan></text><path fill="#CCE6EE" d="M16274 17318h4458v2052h-4458v-2052z"/><text class="TextShape"><tspan class="TextParagraph" font-family="Liberation Sans, sans-serif" font-size="635" font-weight="400"><tspan class="TextPosition" x="18328" y="18507"><tspan>2</tspan></tspan></tspan></text><path fill="#CCE6EE" d="M20732 17318h4784v2052h-4784v-2052z"/><text class="TextShape"><tspan class="TextParagraph" font-family="Liberation Sans, sans-serif" font-size="635" font-weight="700"><tspan class="TextPosition" x="22949" y="18507"><tspan>2</tspan></tspan></tspan></text><path fill="#CCE6EE" d="M25516 17318h4385v2052h-4385v-2052z"/><text class="TextShape"><tspan class="TextParagraph" font-family="Liberation Sans, sans-serif" font-size="635" font-weight="700"><tspan class="TextPosition" x="26877" y="18507"><tspan>Good</tspan></tspan></tspan></text><path fill="#CCE6EE" d="M-1143 19370h5565v2052h-5565v-2052z"/><text class="TextShape"><tspan class="TextParagraph" font-family="Liberation Sans, sans-serif" font-size="635" font-weight="400"><tspan class="TextPosition" x="173" y="20559"><tspan>Tintu Luka</tspan></tspan></tspan></text><path fill="#CCE6EE" d="M4422 19370h2827v2052H4422v-2052z"/><text class="TextShape"><tspan class="TextParagraph" font-family="Liberation Sans, sans-serif" font-size="635" font-weight="400"><tspan class="TextPosition" x="4816" y="20559"><tspan>women</tspan></tspan></tspan></text><path fill="#CCE6EE" d="M7249 19370h4567v2052H7249v-2052z"/><text class="TextShape"><tspan class="TextParagraph" font-family="Liberation Sans, sans-serif" font-size="635" font-weight="400"><tspan class="TextPosition" x="7947" y="20559"><tspan>800 metres</tspan></tspan></tspan></text><path fill="#CCE6EE" d="M11816 19370h4458v2052h-4458v-2052z"/><text class="TextShape"><tspan class="TextParagraph" font-family="Liberation Sans, sans-serif" font-size="635" font-weight="400"><tspan class="TextPosition" x="12564" y="20559"><tspan>2 m 0.58 s</tspan></tspan></tspan></text><path fill="#CCE6EE" d="M16274 19370h4458v2052h-4458v-2052z"/><text class="TextShape"><tspan class="TextParagraph" font-family="Liberation Sans, sans-serif" font-size="635" font-weight="400"><tspan class="TextPosition" x="18328" y="20559"><tspan>2</tspan></tspan></tspan></text><path fill="#CCE6EE" d="M20732 19370h4784v2052h-4784v-2052z"/><text class="TextShape"><tspan class="TextParagraph" font-family="Liberation Sans, sans-serif" font-size="635" font-weight="700"><tspan class="TextPosition" x="22949" y="20559"><tspan>2</tspan></tspan></tspan></text><path fill="#CCE6EE" d="M25516 19370h4385v2052h-4385v-2052z"/><text class="TextShape"><tspan class="TextParagraph" font-family="Liberation Sans, sans-serif" font-size="635" font-weight="700"><tspan class="TextPosition" x="26877" y="20559"><tspan>Good</tspan></tspan></tspan></text><path fill="#CCE6EE" d="M-1143 21422h5565v2052h-5565v-2052z"/><text class="TextShape"><tspan class="TextParagraph" font-family="Liberation Sans, sans-serif" font-size="635" font-weight="400"><tspan class="TextPosition" x="-172" y="22611"><tspan>Sudha Singh</tspan></tspan></tspan></text><path fill="#CCE6EE" d="M4422 21422h2827v2052H4422v-2052z"/><text class="TextShape"><tspan class="TextParagraph" font-family="Liberation Sans, sans-serif" font-size="635" font-weight="400"><tspan class="TextPosition" x="4816" y="22611"><tspan>women</tspan></tspan></tspan></text><path fill="#CCE6EE" d="M7249 21422h4567v2052H7249v-2052z"/><text class="TextShape"><tspan class="TextParagraph" font-family="Liberation Sans, sans-serif" font-size="635" font-weight="400"><tspan class="TextPosition" x="7772" y="22312"><tspan>3000 metres </tspan></tspan><tspan class="TextPosition" x="7668" y="22909"><tspan>steeplechase</tspan></tspan></tspan></text><path fill="#CCE6EE" d="M11816 21422h4458v2052h-4458v-2052z"/><text class="TextShape"><tspan class="TextParagraph" font-family="Liberation Sans, sans-serif" font-size="635" font-weight="400"><tspan class="TextPosition" x="12388" y="22611"><tspan>9 m 26.55 s</tspan></tspan></tspan></text><path fill="#CCE6EE" d="M16274 21422h4458v2052h-4458v-2052z"/><text class="TextShape"><tspan class="TextParagraph" font-family="Liberation Sans, sans-serif" font-size="635" font-weight="400"><tspan class="TextPosition" x="18328" y="22611"><tspan>4</tspan></tspan></tspan></text><path fill="#CCE6EE" d="M20732 21422h4784v2052h-4784v-2052z"/><text class="TextShape"><tspan class="TextParagraph" font-family="Liberation Sans, sans-serif" font-size="635" font-weight="700"><tspan class="TextPosition" x="22949" y="22611"><tspan>2</tspan></tspan></tspan></text><path fill="#CCE6EE" d="M25516 21422h4385v2052h-4385v-2052z"/><text class="TextShape"><tspan class="TextParagraph" font-family="Liberation Sans, sans-serif" font-size="635" font-weight="700"><tspan class="TextPosition" x="26877" y="22611"><tspan>Good</tspan></tspan></tspan></text><path fill="#CCE6EE" d="M-1143 23474h5565v2052h-5565v-2052z"/><text class="TextShape"><tspan class="TextParagraph" font-family="Liberation Sans, sans-serif" font-size="635" font-weight="400"><tspan class="TextPosition" x="-261" y="24364"><tspan>Seema Punia </tspan></tspan><tspan class="TextPosition" x="1024" y="24961"><tspan>Antil</tspan></tspan></tspan></text><path fill="#CCE6EE" d="M4422 23474h2827v2052H4422v-2052z"/><text class="TextShape"><tspan class="TextParagraph" font-family="Liberation Sans, sans-serif" font-size="635" font-weight="400"><tspan class="TextPosition" x="4816" y="24663"><tspan>women</tspan></tspan></tspan></text><path fill="#CCE6EE" d="M7249 23474h4567v2052H7249v-2052z"/><text class="TextShape"><tspan class="TextParagraph" font-family="Liberation Sans, sans-serif" font-size="635" font-weight="400"><tspan class="TextPosition" x="7719" y="24663"><tspan>Discus throw</tspan></tspan></tspan></text><path fill="#CCE6EE" d="M11816 23474h4458v2052h-4458v-2052z"/><text class="TextShape"><tspan class="TextParagraph" font-family="Liberation Sans, sans-serif" font-size="635" font-weight="400"><tspan class="TextPosition" x="12705" y="24663"><tspan>62.62 mtr</tspan></tspan></tspan></text><path fill="#CCE6EE" d="M16274 23474h4458v2052h-4458v-2052z"/><text class="TextShape"><tspan class="TextParagraph" font-family="Liberation Sans, sans-serif" font-size="635" font-weight="400"><tspan class="TextPosition" x="18328" y="24663"><tspan>4</tspan></tspan></tspan></text><path fill="#CCE6EE" d="M20732 23474h4784v2052h-4784v-2052z"/><text class="TextShape"><tspan class="TextParagraph" font-family="Liberation Sans, sans-serif" font-size="635" font-weight="700"><tspan class="TextPosition" x="22949" y="24663"><tspan>2</tspan></tspan></tspan></text><path fill="#CCE6EE" d="M25516 23474h4385v2052h-4385v-2052z"/><text class="TextShape"><tspan class="TextParagraph" font-family="Liberation Sans, sans-serif" font-size="635" font-weight="700"><tspan class="TextPosition" x="26877" y="24663"><tspan>Good</tspan></tspan></tspan></text><path fill="#CCE6EE" d="M-1143 25526h5565v2052h-5565v-2052z"/><text class="TextShape"><tspan class="TextParagraph" font-family="Liberation Sans, sans-serif" font-size="635" font-weight="400"><tspan class="TextPosition" x="266" y="26715"><tspan>PU Chitra</tspan></tspan></tspan></text><path fill="#CCE6EE" d="M4422 25526h2827v2052H4422v-2052z"/><text class="TextShape"><tspan class="TextParagraph" font-family="Liberation Sans, sans-serif" font-size="635" font-weight="400"><tspan class="TextPosition" x="4816" y="26715"><tspan>women</tspan></tspan></tspan></text><path fill="#CCE6EE" d="M7249 25526h4567v2052H7249v-2052z"/><text class="TextShape"><tspan class="TextParagraph" font-family="Liberation Sans, sans-serif" font-size="635" font-weight="400"><tspan class="TextPosition" x="7772" y="26715"><tspan>1500 metres</tspan></tspan></tspan></text><path fill="#CCE6EE" d="M11816 25526h4458v2052h-4458v-2052z"/><text class="TextShape"><tspan class="TextParagraph" font-family="Liberation Sans, sans-serif" font-size="635" font-weight="400"><tspan class="TextPosition" x="12388" y="26715"><tspan>4 m 11.55 s</tspan></tspan></tspan></text><path fill="#CCE6EE" d="M16274 25526h4458v2052h-4458v-2052z"/><text class="TextShape"><tspan class="TextParagraph" font-family="Liberation Sans, sans-serif" font-size="635" font-weight="400"><tspan class="TextPosition" x="18328" y="26715"><tspan>5</tspan></tspan></tspan></text><path fill="#CCE6EE" d="M20732 25526h4784v2052h-4784v-2052z"/><text class="TextShape"><tspan class="TextParagraph" font-family="Liberation Sans, sans-serif" font-size="635" font-weight="700"><tspan class="TextPosition" x="22949" y="26715"><tspan>2</tspan></tspan></tspan></text><path fill="#CCE6EE" d="M25516 25526h4385v2052h-4385v-2052z"/><text class="TextShape"><tspan class="TextParagraph" font-family="Liberation Sans, sans-serif" font-size="635" font-weight="700"><tspan class="TextPosition" x="26877" y="26715"><tspan>Good</tspan></tspan></tspan></text><path fill="#CCE6EE" d="M-1143 27578h5565v2052h-5565v-2052z"/><text class="TextShape"><tspan class="TextParagraph" font-family="Liberation Sans, sans-serif" font-size="635" font-weight="400"><tspan class="TextPosition" x="-454" y="28767"><tspan>Arpinder Singh</tspan></tspan></tspan></text><path fill="#CCE6EE" d="M4422 27578h2827v2052H4422v-2052z"/><text class="TextShape"><tspan class="TextParagraph" font-family="Liberation Sans, sans-serif" font-size="635" font-weight="400"><tspan class="TextPosition" x="5220" y="28767"><tspan>men</tspan></tspan></tspan></text><path fill="#CCE6EE" d="M7249 27578h4567v2052H7249v-2052z"/><text class="TextShape"><tspan class="TextParagraph" font-family="Liberation Sans, sans-serif" font-size="635" font-weight="400"><tspan class="TextPosition" x="7979" y="28767"><tspan>Triple jump</tspan></tspan></tspan></text><path fill="#CCE6EE" d="M11816 27578h4458v2052h-4458v-2052z"/><text class="TextShape"><tspan class="TextParagraph" font-family="Liberation Sans, sans-serif" font-size="635" font-weight="400"><tspan class="TextPosition" x="12705" y="28767"><tspan>17.09 mtr</tspan></tspan></tspan></text><path fill="#CCE6EE" d="M16274 27578h4458v2052h-4458v-2052z"/><text class="TextShape"><tspan class="TextParagraph" font-family="Liberation Sans, sans-serif" font-size="635" font-weight="400"><tspan class="TextPosition" x="18328" y="28767"><tspan>5</tspan></tspan></tspan></text><path fill="#CCE6EE" d="M20732 27578h4784v2052h-4784v-2052z"/><text class="TextShape"><tspan class="TextParagraph" font-family="Liberation Sans, sans-serif" font-size="635" font-weight="700"><tspan class="TextPosition" x="22949" y="28767"><tspan>2</tspan></tspan></tspan></text><path fill="#CCE6EE" d="M25516 27578h4385v2052h-4385v-2052z"/><text class="TextShape"><tspan class="TextParagraph" font-family="Liberation Sans, sans-serif" font-size="635" font-weight="700"><tspan class="TextPosition" x="26877" y="28767"><tspan>Good</tspan></tspan></tspan></text><path fill="#FFF" d="M-1143 29630h5565v2052h-5565v-2052z"/><text class="TextShape"><tspan class="TextParagraph" font-family="Liberation Sans, sans-serif" font-size="635" font-weight="400"><tspan class="TextPosition" x="-735" y="30819"><tspan>Nirmala Sheoran</tspan></tspan></tspan></text><path fill="#FFF" d="M4422 29630h2827v2052H4422v-2052z"/><text class="TextShape"><tspan class="TextParagraph" font-family="Liberation Sans, sans-serif" font-size="635" font-weight="400"><tspan class="TextPosition" x="4816" y="30819"><tspan>women</tspan></tspan></tspan></text><path fill="#FFF" d="M7249 29630h4567v2052H7249v-2052z"/><text class="TextShape"><tspan class="TextParagraph" font-family="Liberation Sans, sans-serif" font-size="635" font-weight="400"><tspan class="TextPosition" x="7947" y="30819"><tspan>400 metres</tspan></tspan></tspan></text><path fill="#FFF" d="M11816 29630h4458v2052h-4458v-2052z"/><text class="TextShape"><tspan class="TextParagraph" font-family="Liberation Sans, sans-serif" font-size="635" font-weight="400"><tspan class="TextPosition" x="13006" y="30819"><tspan>51.25 s</tspan></tspan></tspan></text><path fill="#FFF" d="M16274 29630h4458v2052h-4458v-2052z"/><text class="TextShape"><tspan class="TextParagraph" font-family="Liberation Sans, sans-serif" font-size="635" font-weight="400"><tspan class="TextPosition" x="18328" y="30819"><tspan>3</tspan></tspan></tspan></text><path fill="#FFF" d="M20732 29630h4784v2052h-4784v-2052z"/><text class="TextShape"><tspan class="TextParagraph" font-family="Liberation Sans, sans-serif" font-size="635" font-weight="700"><tspan class="TextPosition" x="22949" y="30819"><tspan>3</tspan></tspan></tspan></text><path fill="#FFF" d="M25516 29630h4385v2052h-4385v-2052z"/><text class="TextShape"><tspan class="TextParagraph" font-family="Liberation Sans, sans-serif" font-size="635" font-weight="700"><tspan class="TextPosition" x="26985" y="30819"><tspan>Poor</tspan></tspan></tspan></text><path fill="#FFF" d="M-1143 31682h5565v2052h-5565v-2052z"/><text class="TextShape"><tspan class="TextParagraph" font-family="Liberation Sans, sans-serif" font-size="635" font-weight="400"><tspan class="TextPosition" x="461" y="32572"><tspan>Purnima </tspan></tspan><tspan class="TextPosition" x="249" y="33169"><tspan>Hembram</tspan></tspan></tspan></text><path fill="#FFF" d="M4422 31682h2827v2052H4422v-2052z"/><text class="TextShape"><tspan class="TextParagraph" font-family="Liberation Sans, sans-serif" font-size="635" font-weight="400"><tspan class="TextPosition" x="4816" y="32871"><tspan>women</tspan></tspan></tspan></text><path fill="#FFF" d="M7249 31682h4567v2052H7249v-2052z"/><text class="TextShape"><tspan class="TextParagraph" font-family="Liberation Sans, sans-serif" font-size="635" font-weight="400"><tspan class="TextPosition" x="7827" y="32871"><tspan>Heptathalon</tspan></tspan></tspan></text><path fill="#FFF" d="M11816 31682h4458v2052h-4458v-2052z"/><text class="TextShape"><tspan class="TextParagraph" font-family="Liberation Sans, sans-serif" font-size="635" font-weight="400"><tspan class="TextPosition" x="12830" y="32871"><tspan>5898 pts</tspan></tspan></tspan></text><path fill="#FFF" d="M16274 31682h4458v2052h-4458v-2052z"/><text class="TextShape"><tspan class="TextParagraph" font-family="Liberation Sans, sans-serif" font-size="635" font-weight="400"><tspan class="TextPosition" x="18328" y="32871"><tspan>3</tspan></tspan></tspan></text><path fill="#FFF" d="M20732 31682h4784v2052h-4784v-2052z"/><text class="TextShape"><tspan class="TextParagraph" font-family="Liberation Sans, sans-serif" font-size="635" font-weight="700"><tspan class="TextPosition" x="22949" y="32871"><tspan>3</tspan></tspan></tspan></text><path fill="#FFF" d="M25516 31682h4385v2052h-4385v-2052z"/><text class="TextShape"><tspan class="TextParagraph" font-family="Liberation Sans, sans-serif" font-size="635" font-weight="700"><tspan class="TextPosition" x="26985" y="32871"><tspan>Poor</tspan></tspan></tspan></text><path fill="#FFF" d="M-1143 33734h5565v2052h-5565v-2052z"/><text class="TextShape"><tspan class="TextParagraph" font-family="Liberation Sans, sans-serif" font-size="635" font-weight="400"><tspan class="TextPosition" x="-483" y="34624"><tspan>Neena Varakkil </tspan></tspan><tspan class="TextPosition" x="918" y="35221"><tspan>Pinto</tspan></tspan></tspan></text><path fill="#FFF" d="M4422 33734h2827v2052H4422v-2052z"/><text class="TextShape"><tspan class="TextParagraph" font-family="Liberation Sans, sans-serif" font-size="635" font-weight="400"><tspan class="TextPosition" x="4816" y="34923"><tspan>women</tspan></tspan></tspan></text><path fill="#FFF" d="M7249 33734h4567v2052H7249v-2052z"/><text class="TextShape"><tspan class="TextParagraph" font-family="Liberation Sans, sans-serif" font-size="635" font-weight="400"><tspan class="TextPosition" x="8055" y="34923"><tspan>Long jump</tspan></tspan></tspan></text><path fill="#FFF" d="M11816 33734h4458v2052h-4458v-2052z"/><text class="TextShape"><tspan class="TextParagraph" font-family="Liberation Sans, sans-serif" font-size="635" font-weight="400"><tspan class="TextPosition" x="12881" y="34923"><tspan>6.66 mtr</tspan></tspan></tspan></text><path fill="#FFF" d="M16274 33734h4458v2052h-4458v-2052z"/><text class="TextShape"><tspan class="TextParagraph" font-family="Liberation Sans, sans-serif" font-size="635" font-weight="400"><tspan class="TextPosition" x="18328" y="34923"><tspan>4</tspan></tspan></tspan></text><path fill="#FFF" d="M20732 33734h4784v2052h-4784v-2052z"/><text class="TextShape"><tspan class="TextParagraph" font-family="Liberation Sans, sans-serif" font-size="635" font-weight="700"><tspan class="TextPosition" x="22949" y="34923"><tspan>3</tspan></tspan></tspan></text><path fill="#FFF" d="M25516 33734h4385v2052h-4385v-2052z"/><text class="TextShape"><tspan class="TextParagraph" font-family="Liberation Sans, sans-serif" font-size="635" font-weight="700"><tspan class="TextPosition" x="26985" y="34923"><tspan>Poor</tspan></tspan></tspan></text><path fill="#FFF" d="M-1143 35786h5565v2052h-5565v-2052z"/><text class="TextShape"><tspan class="TextParagraph" font-family="Liberation Sans, sans-serif" font-size="635" font-weight="400"><tspan class="TextPosition" x="-225" y="36975"><tspan>Dutee Chand</tspan></tspan></tspan></text><path fill="#FFF" d="M4422 35786h2827v2052H4422v-2052z"/><text class="TextShape"><tspan class="TextParagraph" font-family="Liberation Sans, sans-serif" font-size="635" font-weight="400"><tspan class="TextPosition" x="4816" y="36975"><tspan>women</tspan></tspan></tspan></text><path fill="#FFF" d="M7249 35786h4567v2052H7249v-2052z"/><text class="TextShape"><tspan class="TextParagraph" font-family="Liberation Sans, sans-serif" font-size="635" font-weight="400"><tspan class="TextPosition" x="7947" y="36975"><tspan>100 metres</tspan></tspan></tspan></text><path fill="#FFF" d="M11816 35786h4458v2052h-4458v-2052z"/><text class="TextShape"><tspan class="TextParagraph" font-family="Liberation Sans, sans-serif" font-size="635" font-weight="400"><tspan class="TextPosition" x="13006" y="36975"><tspan>11.24 s</tspan></tspan></tspan></text><path fill="#FFF" d="M16274 35786h4458v2052h-4458v-2052z"/><text class="TextShape"><tspan class="TextParagraph" font-family="Liberation Sans, sans-serif" font-size="635" font-weight="400"><tspan class="TextPosition" x="18328" y="36975"><tspan>4</tspan></tspan></tspan></text><path fill="#FFF" d="M20732 35786h4784v2052h-4784v-2052z"/><text class="TextShape"><tspan class="TextParagraph" font-family="Liberation Sans, sans-serif" font-size="635" font-weight="700"><tspan class="TextPosition" x="22949" y="36975"><tspan>4</tspan></tspan></tspan></text><path fill="#FFF" d="M25516 35786h4385v2052h-4385v-2052z"/><text class="TextShape"><tspan class="TextParagraph" font-family="Liberation Sans, sans-serif" font-size="635" font-weight="700"><tspan class="TextPosition" x="26985" y="36975"><tspan>Poor</tspan></tspan></tspan></text><path fill="#FFF" d="M-1143 37838h5565v2052h-5565v-2052z"/><text class="TextShape"><tspan class="TextParagraph" font-family="Liberation Sans, sans-serif" font-size="635" font-weight="400"><tspan class="TextPosition" x="-824" y="39027"><tspan>Mohammed Anas</tspan></tspan></tspan></text><path fill="#FFF" d="M4422 37838h2827v2052H4422v-2052z"/><text class="TextShape"><tspan class="TextParagraph" font-family="Liberation Sans, sans-serif" font-size="635" font-weight="400"><tspan class="TextPosition" x="5220" y="39027"><tspan>men</tspan></tspan></tspan></text><path fill="#FFF" d="M7249 37838h4567v2052H7249v-2052z"/><text class="TextShape"><tspan class="TextParagraph" font-family="Liberation Sans, sans-serif" font-size="635" font-weight="400"><tspan class="TextPosition" x="7947" y="39027"><tspan>400 metres</tspan></tspan></tspan></text><path fill="#FFF" d="M11816 37838h4458v2052h-4458v-2052z"/><text class="TextShape"><tspan class="TextParagraph" font-family="Liberation Sans, sans-serif" font-size="635" font-weight="400"><tspan class="TextPosition" x="13006" y="39027"><tspan>45.24 s</tspan></tspan></tspan></text><path fill="#FFF" d="M16274 37838h4458v2052h-4458v-2052z"/><text class="TextShape"><tspan class="TextParagraph" font-family="Liberation Sans, sans-serif" font-size="635" font-weight="400"><tspan class="TextPosition" x="18328" y="39027"><tspan>5</tspan></tspan></tspan></text><path fill="#FFF" d="M20732 37838h4784v2052h-4784v-2052z"/><text class="TextShape"><tspan class="TextParagraph" font-family="Liberation Sans, sans-serif" font-size="635" font-weight="700"><tspan class="TextPosition" x="22949" y="39027"><tspan>4</tspan></tspan></tspan></text><path fill="#FFF" d="M25516 37838h4385v2052h-4385v-2052z"/><text class="TextShape"><tspan class="TextParagraph" font-family="Liberation Sans, sans-serif" font-size="635" font-weight="700"><tspan class="TextPosition" x="26985" y="39027"><tspan>Poor</tspan></tspan></tspan></text><path fill="#FFF" d="M-1143 39890h5565v2052h-5565v-2052z"/><text class="TextShape"><tspan class="TextParagraph" font-family="Liberation Sans, sans-serif" font-size="635" font-weight="400"><tspan class="TextPosition" x="-85" y="41079"><tspan>Sarita Singh</tspan></tspan></tspan></text><path fill="#FFF" d="M4422 39890h2827v2052H4422v-2052z"/><text class="TextShape"><tspan class="TextParagraph" font-family="Liberation Sans, sans-serif" font-size="635" font-weight="400"><tspan class="TextPosition" x="4816" y="41079"><tspan>women</tspan></tspan></tspan></text><path fill="#FFF" d="M7249 39890h4567v2052H7249v-2052z"/><text class="TextShape"><tspan class="TextParagraph" font-family="Liberation Sans, sans-serif" font-size="635" font-weight="400"><tspan class="TextPosition" x="8318" y="40780"><tspan>Hammer </tspan></tspan><tspan class="TextPosition" x="8758" y="41377"><tspan>throw</tspan></tspan></tspan></text><path fill="#FFF" d="M11816 39890h4458v2052h-4458v-2052z"/><text class="TextShape"><tspan class="TextParagraph" font-family="Liberation Sans, sans-serif" font-size="635" font-weight="400"><tspan class="TextPosition" x="12705" y="41079"><tspan>65.25 mtr</tspan></tspan></tspan></text><path fill="#FFF" d="M16274 39890h4458v2052h-4458v-2052z"/><text class="TextShape"><tspan class="TextParagraph" font-family="Liberation Sans, sans-serif" font-size="635" font-weight="400"><tspan class="TextPosition" x="18152" y="41079"><tspan>10</tspan></tspan></tspan></text><path fill="#FFF" d="M20732 39890h4784v2052h-4784v-2052z"/><text class="TextShape"><tspan class="TextParagraph" font-family="Liberation Sans, sans-serif" font-size="635" font-weight="700"><tspan class="TextPosition" x="22949" y="41079"><tspan>4</tspan></tspan></tspan></text><path fill="#FFF" d="M25516 39890h4385v2052h-4385v-2052z"/><text class="TextShape"><tspan class="TextParagraph" font-family="Liberation Sans, sans-serif" font-size="635" font-weight="700"><tspan class="TextPosition" x="26985" y="41079"><tspan>Poor</tspan></tspan></tspan></text><path fill="#FFF" d="M-1143 41942h5565v2052h-5565v-2052z"/><text class="TextShape"><tspan class="TextParagraph" font-family="Liberation Sans, sans-serif" font-size="635" font-weight="400"><tspan class="TextPosition" x="-386" y="43131"><tspan>Sowmya Baby</tspan></tspan></tspan></text><path fill="#FFF" d="M4422 41942h2827v2052H4422v-2052z"/><text class="TextShape"><tspan class="TextParagraph" font-family="Liberation Sans, sans-serif" font-size="635" font-weight="400"><tspan class="TextPosition" x="4816" y="43131"><tspan>women</tspan></tspan></tspan></text><path fill="#FFF" d="M7249 41942h4567v2052H7249v-2052z"/><text class="TextShape"><tspan class="TextParagraph" font-family="Liberation Sans, sans-serif" font-size="635" font-weight="400"><tspan class="TextPosition" x="7947" y="43131"><tspan>20 km walk</tspan></tspan></tspan></text><path fill="#FFF" d="M11816 41942h4458v2052h-4458v-2052z"/><text class="TextShape"><tspan class="TextParagraph" font-family="Liberation Sans, sans-serif" font-size="635" font-weight="400"><tspan class="TextPosition" x="12123" y="43131"><tspan>1 h 31 m 29 s</tspan></tspan></tspan></text><path fill="#FFF" d="M16274 41942h4458v2052h-4458v-2052z"/><text class="TextShape"><tspan class="TextParagraph" font-family="Liberation Sans, sans-serif" font-size="635" font-weight="400"><tspan class="TextPosition" x="18152" y="43131"><tspan>30</tspan></tspan></tspan></text><path fill="#FFF" d="M20732 41942h4784v2052h-4784v-2052z"/><text class="TextShape"><tspan class="TextParagraph" font-family="Liberation Sans, sans-serif" font-size="635" font-weight="700"><tspan class="TextPosition" x="22949" y="43131"><tspan>4</tspan></tspan></tspan></text><path fill="#FFF" d="M25516 41942h4385v2052h-4385v-2052z"/><text class="TextShape"><tspan class="TextParagraph" font-family="Liberation Sans, sans-serif" font-size="635" font-weight="700"><tspan class="TextPosition" x="26985" y="43131"><tspan>Poor</tspan></tspan></tspan></text><path fill="#FFF" d="M-1143 43994h5565v858h-5565v-858zM4422 43994h2827v858H4422v-858zM7249 43994h4567v858H7249v-858zM11816 43994h4458v858h-4458v-858zM16274 43994h4458v858h-4458v-858zM20732 43994h4784v858h-4784v-858zM25516 43994h4385v858h-4385v-858zM-1143 44852h31044v858H-1143v-858z"/><text class="TextShape"><tspan class="TextParagraph" font-family="Liberation Sans, sans-serif" font-size="635" font-weight="400"><tspan class="TextPosition" x="-893" y="45444"><tspan>Note: h - hours, m - minutes, mtr - metres, pts - points, s - seconds</tspan></tspan></tspan></text><path fill="none" stroke="#66B4CD" stroke-width="53" d="M-1169-4323h31071"/><path fill="none" stroke="#FFF" stroke-width="2" d="M-1169-363h31071M-1169 7058h31096M-1169 9110h31096M-1169 11162h31096M-1169 13214h31096M-1169 15266h31096M-1169 17318h31096M-1169 19370h31096M-1169 21422h31096M-1169 23474h31096M-1169 25526h31096M-1169 27578h31096M-1169 29630h31096M-1169 31682h31096M-1169 33734h31096M-1169 35786h31096M-1169 37838h31096M-1169 39890h31096M-1169 41942h31096M-1169 43994h31096M-1169 44852h5592"/><path fill="none" stroke="#66B4CD" stroke-width="53" d="M-1169 45710h5591"/><path fill="none" stroke="#FFF" stroke-width="2" d="M4421 44852h2829"/><path fill="none" stroke="#66B4CD" stroke-width="53" d="M4422 45710h2827"/><path fill="none" stroke="#FFF" stroke-width="2" d="M7248 44852h4569"/><path fill="none" stroke="#66B4CD" stroke-width="53" d="M7249 45710h4567"/><path fill="none" stroke="#FFF" stroke-width="2" d="M11815 44852h4460"/><path fill="none" stroke="#66B4CD" stroke-width="53" d="M11816 45710h4458"/><path fill="none" stroke="#FFF" stroke-width="2" d="M16273 44852h4460"/><path fill="none" stroke="#66B4CD" stroke-width="53" d="M16274 45710h4458"/><path fill="none" stroke="#FFF" stroke-width="2" d="M20731 44852h4786"/><path fill="none" stroke="#66B4CD" stroke-width="53" d="M20732 45710h4784"/><path fill="none" stroke="#FFF" stroke-width="2" d="M25515 44852h4387"/><path fill="none" stroke="#66B4CD" stroke-width="53" d="M25516 45710h4386M-1143-4349v50085"/><path fill="none" stroke="#FFF" stroke-width="2" d="M4422-364v45217M7249-364v45217M11816-364v45217M16274-364v45217M20732-364v45217M29901-4349v3987M25516-364v7423"/><path fill="none" stroke="#66B4CD" stroke-width="53" d="M29901-364v7423"/><path fill="none" stroke="#FFF" stroke-width="2" d="M25516 7057v2054"/><path fill="none" stroke="#66B4CD" stroke-width="53" d="M29901 7057v2054"/><path fill="none" stroke="#FFF" stroke-width="2" d="M25516 9109v2054"/><path fill="none" stroke="#66B4CD" stroke-width="53" d="M29901 9109v2054"/><path fill="none" stroke="#FFF" stroke-width="2" d="M25516 11161v2054"/><path fill="none" stroke="#66B4CD" stroke-width="53" d="M29901 11161v2054"/><path fill="none" stroke="#FFF" stroke-width="2" d="M25516 13213v2054"/><path fill="none" stroke="#66B4CD" stroke-width="53" d="M29901 13213v2054"/><path fill="none" stroke="#FFF" stroke-width="2" d="M25516 15265v2054"/><path fill="none" stroke="#66B4CD" stroke-width="53" d="M29901 15265v2054"/><path fill="none" stroke="#FFF" stroke-width="2" d="M25516 17317v2054"/><path fill="none" stroke="#66B4CD" stroke-width="53" d="M29901 17317v2054"/><path fill="none" stroke="#FFF" stroke-width="2" d="M25516 19369v2054"/><path fill="none" stroke="#66B4CD" stroke-width="53" d="M29901 19369v2054"/><path fill="none" stroke="#FFF" stroke-width="2" d="M25516 21421v2054"/><path fill="none" stroke="#66B4CD" stroke-width="53" d="M29901 21421v2054"/><path fill="none" stroke="#FFF" stroke-width="2" d="M25516 23473v2054"/><path fill="none" stroke="#66B4CD" stroke-width="53" d="M29901 23473v2054"/><path fill="none" stroke="#FFF" stroke-width="2" d="M25516 25525v2054"/><path fill="none" stroke="#66B4CD" stroke-width="53" d="M29901 25525v2054"/><path fill="none" stroke="#FFF" stroke-width="2" d="M25516 27577v2054"/><path fill="none" stroke="#66B4CD" stroke-width="53" d="M29901 27577v2054"/><path fill="none" stroke="#FFF" stroke-width="2" d="M25516 29629v2054"/><path fill="none" stroke="#66B4CD" stroke-width="53" d="M29901 29629v2054"/><path fill="none" stroke="#FFF" stroke-width="2" d="M25516 31681v2054"/><path fill="none" stroke="#66B4CD" stroke-width="53" d="M29901 31681v2054"/><path fill="none" stroke="#FFF" stroke-width="2" d="M25516 33733v2054"/><path fill="none" stroke="#66B4CD" stroke-width="53" d="M29901 33733v2054"/><path fill="none" stroke="#FFF" stroke-width="2" d="M25516 35785v2054"/><path fill="none" stroke="#66B4CD" stroke-width="53" d="M29901 35785v2054"/><path fill="none" stroke="#FFF" stroke-width="2" d="M25516 37837v2054"/><path fill="none" stroke="#66B4CD" stroke-width="53" d="M29901 37837v2054"/><path fill="none" stroke="#FFF" stroke-width="2" d="M25516 39889v2054"/><path fill="none" stroke="#66B4CD" stroke-width="53" d="M29901 39889v2054"/><path fill="none" stroke="#FFF" stroke-width="2" d="M25516 41941v2054"/><path fill="none" stroke="#66B4CD" stroke-width="53" d="M29901 41941v2054"/><path fill="none" stroke="#FFF" stroke-width="2" d="M25516 43993v860"/><path d="M29901 43993v1759.583" fill="none" stroke="#66b4cd" stroke-width="53"/><path fill="none" stroke="#FFF" stroke-width="2" d="M29901 44851v885"/></g></g></g></g></svg>