<svg xmlns="http://www.w3.org/2000/svg" version="1.2" width="1174" height="1802" viewBox="-1145 -4325 31062.082 47677.918" preserveAspectRatio="xMidYMid" fill-rule="evenodd" stroke-width="28.222" stroke-linejoin="round"><defs class="ClipPathGroup"><clipPath id="a"><path d="M-1145-4325h31048v47653H-1145z"/></clipPath></defs><g class="SlideGroup"><g class="Slide" clip-path="url(#a)" transform="translate(19.716 18.989)"><g class="Page"><g class="com.sun.star.drawing.TableShape"><path class="BoundingBox" fill="none" d="M-1145-4325h31049v47654H-1145z"/><path d="M-1143-4323h31044v3960H-1143z" fill="#66b4cd"/><text class="TextShape"><tspan class="TextParagraph" font-size="847" font-weight="700" font-family="'Liberation Sans',sans-serif"><tspan class="TextPosition" x="4518" y="-2601"><tspan>Indian athletes with a good chance of winning an</tspan></tspan><tspan class="TextPosition" x="4132" y="-1407"><tspan>individual athletics medal at the 2018 Asian Games</tspan></tspan></tspan></text><path d="M-1143-363h5565v5037h-5565z" fill="#66b4cd"/><text class="TextShape"><tspan class="TextParagraph" font-size="635" font-weight="700" font-family="'Liberation Sans',sans-serif"><tspan class="TextPosition" x="-409" y="2318"><tspan>Indian athlete</tspan></tspan></tspan></text><path d="M4422-363h2827v5037H4422z" fill="#66b4cd"/><text class="TextShape"><tspan class="TextParagraph" font-size="635" font-weight="700" font-family="'Liberation Sans',sans-serif"><tspan class="TextPosition" x="4724" y="2318"><tspan>Gender</tspan></tspan></tspan></text><path d="M7249-363h4567v5037H7249z" fill="#66b4cd"/><text class="TextShape"><tspan class="TextParagraph" font-size="635" font-weight="700" font-family="'Liberation Sans',sans-serif"><tspan class="TextPosition" x="8669" y="2318"><tspan>Event</tspan></tspan></tspan></text><path d="M11816-363h4458v5037h-4458z" fill="#66b4cd"/><text class="TextShape"><tspan class="TextParagraph" font-size="635" font-weight="700" font-family="'Liberation Sans',sans-serif"><tspan class="TextPosition" x="13359" y="1124"><tspan>Best </tspan></tspan><tspan class="TextPosition" x="12125" y="1721"><tspan>performance </tspan></tspan><tspan class="TextPosition" x="12083" y="2318"><tspan>by the Indian </tspan></tspan><tspan class="TextPosition" x="12123" y="2915"><tspan>athlete since </tspan></tspan><tspan class="TextPosition" x="12354" y="3512"><tspan>Jan 1, 2016</tspan></tspan></tspan></text><path d="M16274-363h4458v5037h-4458z" fill="#66b4cd"/><text class="TextShape"><tspan class="TextParagraph" font-size="635" font-weight="700" font-family="'Liberation Sans',sans-serif"><tspan class="TextPosition" x="16662" y="527"><tspan>No. of Asian </tspan></tspan><tspan class="TextPosition" x="16579" y="1124"><tspan>athletes with </tspan></tspan><tspan class="TextPosition" x="16808" y="1721"><tspan>an equal or </tspan></tspan><tspan class="TextPosition" x="17623" y="2318"><tspan>better </tspan></tspan><tspan class="TextPosition" x="16583" y="2915"><tspan>performance </tspan></tspan><tspan class="TextPosition" x="16704" y="3512"><tspan>since Jan 1, </tspan></tspan><tspan class="TextPosition" x="17801" y="4109"><tspan>2016</tspan></tspan></tspan></text><path d="M20732-363h4784v5037h-4784z" fill="#66b4cd"/><text class="TextShape"><tspan class="TextParagraph" font-size="635" font-weight="700" font-family="'Liberation Sans',sans-serif"><tspan class="TextPosition" x="21306" y="229"><tspan>The number </tspan></tspan><tspan class="TextPosition" x="21888" y="826"><tspan>of those </tspan></tspan><tspan class="TextPosition" x="22261" y="1423"><tspan>Asian </tspan></tspan><tspan class="TextPosition" x="21467" y="2020"><tspan>athletes, at </tspan></tspan><tspan class="TextPosition" x="21552" y="2617"><tspan>most, who </tspan></tspan><tspan class="TextPosition" x="21147" y="3214"><tspan>could appear </tspan></tspan><tspan class="TextPosition" x="21338" y="3811"><tspan>at the Asian </tspan></tspan><tspan class="TextPosition" x="22068" y="4408"><tspan>Games</tspan></tspan></tspan></text><path d="M25516-363h4385v5037h-4385z" fill="#66b4cd"/><text class="TextShape"><tspan class="TextParagraph" font-size="635" font-weight="700" font-family="'Liberation Sans',sans-serif"><tspan class="TextPosition" x="26174" y="826"><tspan>Chance of </tspan></tspan><tspan class="TextPosition" x="26771" y="1423"><tspan>Indian </tspan></tspan><tspan class="TextPosition" x="26686" y="2020"><tspan>athlete </tspan></tspan><tspan class="TextPosition" x="26134" y="2617"><tspan>winning at </tspan></tspan><tspan class="TextPosition" x="26722" y="3214"><tspan>least a </tspan></tspan><tspan class="TextPosition" x="26667" y="3811"><tspan>bronze</tspan></tspan></tspan></text><path d="M-1143 4674h5565v2052h-5565z" fill="#cce6ee"/><text class="TextShape"><tspan class="TextParagraph" font-size="635" font-weight="400" font-family="'Liberation Sans',sans-serif"><tspan class="TextPosition" x="-166" y="5863"><tspan>Tejinder Toor</tspan></tspan></tspan></text><path d="M4422 4674h2827v2052H4422z" fill="#cce6ee"/><text class="TextShape"><tspan class="TextParagraph" font-size="635" font-weight="400" font-family="'Liberation Sans',sans-serif"><tspan class="TextPosition" x="5220" y="5863"><tspan>men</tspan></tspan></tspan></text><path d="M7249 4674h4567v2052H7249z" fill="#cce6ee"/><text class="TextShape"><tspan class="TextParagraph" font-size="635" font-weight="400" font-family="'Liberation Sans',sans-serif"><tspan class="TextPosition" x="8352" y="5863"><tspan>Shot put</tspan></tspan></tspan></text><path d="M11816 4674h4458v2052h-4458z" fill="#cce6ee"/><text class="TextShape"><tspan class="TextParagraph" font-size="635" font-weight="400" font-family="'Liberation Sans',sans-serif"><tspan class="TextPosition" x="12881" y="5863"><tspan>20.4 mtr</tspan></tspan></tspan></text><path d="M16274 4674h4458v2052h-4458z" fill="#cce6ee"/><text class="TextShape"><tspan class="TextParagraph" font-size="635" font-weight="400" font-family="'Liberation Sans',sans-serif"><tspan class="TextPosition" x="18328" y="5863"><tspan>0</tspan></tspan></tspan></text><path d="M20732 4674h4784v2052h-4784z" fill="#cce6ee"/><text class="TextShape"><tspan class="TextParagraph" font-size="635" font-weight="700" font-family="'Liberation Sans',sans-serif"><tspan class="TextPosition" x="22949" y="5863"><tspan>0</tspan></tspan></tspan></text><path d="M25516 4674h4385v2052h-4385z" fill="#cce6ee"/><text class="TextShape"><tspan class="TextParagraph" font-size="635" font-weight="700" font-family="'Liberation Sans',sans-serif"><tspan class="TextPosition" x="26877" y="5863"><tspan>Good</tspan></tspan></tspan></text><path d="M-1143 6726h5565v2052h-5565z" fill="#cce6ee"/><text class="TextShape"><tspan class="TextParagraph" font-size="635" font-weight="400" font-family="'Liberation Sans',sans-serif"><tspan class="TextPosition" x="-559" y="7915"><tspan>Jinson Johnson</tspan></tspan></tspan></text><path d="M4422 6726h2827v2052H4422z" fill="#cce6ee"/><text class="TextShape"><tspan class="TextParagraph" font-size="635" font-weight="400" font-family="'Liberation Sans',sans-serif"><tspan class="TextPosition" x="5220" y="7915"><tspan>men</tspan></tspan></tspan></text><path d="M7249 6726h4567v2052H7249z" fill="#cce6ee"/><text class="TextShape"><tspan class="TextParagraph" font-size="635" font-weight="400" font-family="'Liberation Sans',sans-serif"><tspan class="TextPosition" x="7947" y="7915"><tspan>800 metres</tspan></tspan></tspan></text><path d="M11816 6726h4458v2052h-4458z" fill="#cce6ee"/><text class="TextShape"><tspan class="TextParagraph" font-size="635" font-weight="400" font-family="'Liberation Sans',sans-serif"><tspan class="TextPosition" x="12388" y="7915"><tspan>1 m 45.65 s</tspan></tspan></tspan></text><path d="M16274 6726h4458v2052h-4458z" fill="#cce6ee"/><text class="TextShape"><tspan class="TextParagraph" font-size="635" font-weight="400" font-family="'Liberation Sans',sans-serif"><tspan class="TextPosition" x="18328" y="7915"><tspan>1</tspan></tspan></tspan></text><path d="M20732 6726h4784v2052h-4784z" fill="#cce6ee"/><text class="TextShape"><tspan class="TextParagraph" font-size="635" font-weight="700" font-family="'Liberation Sans',sans-serif"><tspan class="TextPosition" x="22949" y="7915"><tspan>1</tspan></tspan></tspan></text><path d="M25516 6726h4385v2052h-4385z" fill="#cce6ee"/><text class="TextShape"><tspan class="TextParagraph" font-size="635" font-weight="700" font-family="'Liberation Sans',sans-serif"><tspan class="TextPosition" x="26877" y="7915"><tspan>Good</tspan></tspan></tspan></text><path d="M-1143 8778h5565v2052h-5565z" fill="#cce6ee"/><text class="TextShape"><tspan class="TextParagraph" font-size="635" font-weight="400" font-family="'Liberation Sans',sans-serif"><tspan class="TextPosition" x="-418" y="9967"><tspan>Neeraj Chopra</tspan></tspan></tspan></text><path d="M4422 8778h2827v2052H4422z" fill="#cce6ee"/><text class="TextShape"><tspan class="TextParagraph" font-size="635" font-weight="400" font-family="'Liberation Sans',sans-serif"><tspan class="TextPosition" x="5220" y="9967"><tspan>men</tspan></tspan></tspan></text><path d="M7249 8778h4567v2052H7249z" fill="#cce6ee"/><text class="TextShape"><tspan class="TextParagraph" font-size="635" font-weight="400" font-family="'Liberation Sans',sans-serif"><tspan class="TextPosition" x="7685" y="9967"><tspan>Javelin throw</tspan></tspan></tspan></text><path d="M11816 8778h4458v2052h-4458z" fill="#cce6ee"/><text class="TextShape"><tspan class="TextParagraph" font-size="635" font-weight="400" font-family="'Liberation Sans',sans-serif"><tspan class="TextPosition" x="12705" y="9967"><tspan>87.43 mtr</tspan></tspan></tspan></text><path d="M16274 8778h4458v2052h-4458z" fill="#cce6ee"/><text class="TextShape"><tspan class="TextParagraph" font-size="635" font-weight="400" font-family="'Liberation Sans',sans-serif"><tspan class="TextPosition" x="18328" y="9967"><tspan>1</tspan></tspan></tspan></text><path d="M20732 8778h4784v2052h-4784z" fill="#cce6ee"/><text class="TextShape"><tspan class="TextParagraph" font-size="635" font-weight="700" font-family="'Liberation Sans',sans-serif"><tspan class="TextPosition" x="22949" y="9967"><tspan>1</tspan></tspan></tspan></text><path d="M25516 8778h4385v2052h-4385z" fill="#cce6ee"/><text class="TextShape"><tspan class="TextParagraph" font-size="635" font-weight="700" font-family="'Liberation Sans',sans-serif"><tspan class="TextPosition" x="26877" y="9967"><tspan>Good</tspan></tspan></tspan></text><path d="M-1143 10830h5565v2052h-5565z" fill="#cce6ee"/><text class="TextShape"><tspan class="TextParagraph" font-size="635" font-weight="400" font-family="'Liberation Sans',sans-serif"><tspan class="TextPosition" x="-701" y="12019"><tspan>Swapna Barman</tspan></tspan></tspan></text><path d="M4422 10830h2827v2052H4422z" fill="#cce6ee"/><text class="TextShape"><tspan class="TextParagraph" font-size="635" font-weight="400" font-family="'Liberation Sans',sans-serif"><tspan class="TextPosition" x="4816" y="12019"><tspan>women</tspan></tspan></tspan></text><path d="M7249 10830h4567v2052H7249z" fill="#cce6ee"/><text class="TextShape"><tspan class="TextParagraph" font-size="635" font-weight="400" font-family="'Liberation Sans',sans-serif"><tspan class="TextPosition" x="7827" y="12019"><tspan>Heptathalon</tspan></tspan></tspan></text><path d="M11816 10830h4458v2052h-4458z" fill="#cce6ee"/><text class="TextShape"><tspan class="TextParagraph" font-size="635" font-weight="400" font-family="'Liberation Sans',sans-serif"><tspan class="TextPosition" x="12830" y="12019"><tspan>5942 pts</tspan></tspan></tspan></text><path d="M16274 10830h4458v2052h-4458z" fill="#cce6ee"/><text class="TextShape"><tspan class="TextParagraph" font-size="635" font-weight="400" font-family="'Liberation Sans',sans-serif"><tspan class="TextPosition" x="18328" y="12019"><tspan>1</tspan></tspan></tspan></text><path d="M20732 10830h4784v2052h-4784z" fill="#cce6ee"/><text class="TextShape"><tspan class="TextParagraph" font-size="635" font-weight="700" font-family="'Liberation Sans',sans-serif"><tspan class="TextPosition" x="22949" y="12019"><tspan>1</tspan></tspan></tspan></text><path d="M25516 10830h4385v2052h-4385z" fill="#cce6ee"/><text class="TextShape"><tspan class="TextParagraph" font-size="635" font-weight="700" font-family="'Liberation Sans',sans-serif"><tspan class="TextPosition" x="26877" y="12019"><tspan>Good</tspan></tspan></tspan></text><path d="M-1143 12882h5565v2052h-5565z" fill="#cce6ee"/><text class="TextShape"><tspan class="TextParagraph" font-size="635" font-weight="400" font-family="'Liberation Sans',sans-serif"><tspan class="TextPosition" x="-559" y="14071"><tspan>Jinson Johnson</tspan></tspan></tspan></text><path d="M4422 12882h2827v2052H4422z" fill="#cce6ee"/><text class="TextShape"><tspan class="TextParagraph" font-size="635" font-weight="400" font-family="'Liberation Sans',sans-serif"><tspan class="TextPosition" x="5220" y="14071"><tspan>men</tspan></tspan></tspan></text><path d="M7249 12882h4567v2052H7249z" fill="#cce6ee"/><text class="TextShape"><tspan class="TextParagraph" font-size="635" font-weight="400" font-family="'Liberation Sans',sans-serif"><tspan class="TextPosition" x="7772" y="14071"><tspan>1500 metres</tspan></tspan></tspan></text><path d="M11816 12882h4458v2052h-4458z" fill="#cce6ee"/><text class="TextShape"><tspan class="TextParagraph" font-size="635" font-weight="400" font-family="'Liberation Sans',sans-serif"><tspan class="TextPosition" x="12388" y="14071"><tspan>3 m 37.86 s</tspan></tspan></tspan></text><path d="M16274 12882h4458v2052h-4458z" fill="#cce6ee"/><text class="TextShape"><tspan class="TextParagraph" font-size="635" font-weight="400" font-family="'Liberation Sans',sans-serif"><tspan class="TextPosition" x="18328" y="14071"><tspan>4</tspan></tspan></tspan></text><path d="M20732 12882h4784v2052h-4784z" fill="#cce6ee"/><text class="TextShape"><tspan class="TextParagraph" font-size="635" font-weight="700" font-family="'Liberation Sans',sans-serif"><tspan class="TextPosition" x="22949" y="14071"><tspan>1</tspan></tspan></tspan></text><path d="M25516 12882h4385v2052h-4385z" fill="#cce6ee"/><text class="TextShape"><tspan class="TextParagraph" font-size="635" font-weight="700" font-family="'Liberation Sans',sans-serif"><tspan class="TextPosition" x="26877" y="14071"><tspan>Good</tspan></tspan></tspan></text><path d="M-1143 14934h5565v2052h-5565z" fill="#cce6ee"/><text class="TextShape"><tspan class="TextParagraph" font-size="635" font-weight="400" font-family="'Liberation Sans',sans-serif"><tspan class="TextPosition" x="249" y="16123"><tspan>Hima Das</tspan></tspan></tspan></text><path d="M4422 14934h2827v2052H4422z" fill="#cce6ee"/><text class="TextShape"><tspan class="TextParagraph" font-size="635" font-weight="400" font-family="'Liberation Sans',sans-serif"><tspan class="TextPosition" x="4816" y="16123"><tspan>women</tspan></tspan></tspan></text><path d="M7249 14934h4567v2052H7249z" fill="#cce6ee"/><text class="TextShape"><tspan class="TextParagraph" font-size="635" font-weight="400" font-family="'Liberation Sans',sans-serif"><tspan class="TextPosition" x="7947" y="16123"><tspan>400 metres</tspan></tspan></tspan></text><path d="M11816 14934h4458v2052h-4458z" fill="#cce6ee"/><text class="TextShape"><tspan class="TextParagraph" font-size="635" font-weight="400" font-family="'Liberation Sans',sans-serif"><tspan class="TextPosition" x="13006" y="16123"><tspan>51.13 s</tspan></tspan></tspan></text><path d="M16274 14934h4458v2052h-4458z" fill="#cce6ee"/><text class="TextShape"><tspan class="TextParagraph" font-size="635" font-weight="400" font-family="'Liberation Sans',sans-serif"><tspan class="TextPosition" x="18328" y="16123"><tspan>2</tspan></tspan></tspan></text><path d="M20732 14934h4784v2052h-4784z" fill="#cce6ee"/><text class="TextShape"><tspan class="TextParagraph" font-size="635" font-weight="700" font-family="'Liberation Sans',sans-serif"><tspan class="TextPosition" x="22949" y="16123"><tspan>2</tspan></tspan></tspan></text><path d="M25516 14934h4385v2052h-4385z" fill="#cce6ee"/><text class="TextShape"><tspan class="TextParagraph" font-size="635" font-weight="700" font-family="'Liberation Sans',sans-serif"><tspan class="TextPosition" x="26877" y="16123"><tspan>Good</tspan></tspan></tspan></text><path d="M-1143 16986h5565v2052h-5565z" fill="#cce6ee"/><text class="TextShape"><tspan class="TextParagraph" font-size="635" font-weight="400" font-family="'Liberation Sans',sans-serif"><tspan class="TextPosition" x="173" y="18175"><tspan>Tintu Luka</tspan></tspan></tspan></text><path d="M4422 16986h2827v2052H4422z" fill="#cce6ee"/><text class="TextShape"><tspan class="TextParagraph" font-size="635" font-weight="400" font-family="'Liberation Sans',sans-serif"><tspan class="TextPosition" x="4816" y="18175"><tspan>women</tspan></tspan></tspan></text><path d="M7249 16986h4567v2052H7249z" fill="#cce6ee"/><text class="TextShape"><tspan class="TextParagraph" font-size="635" font-weight="400" font-family="'Liberation Sans',sans-serif"><tspan class="TextPosition" x="7947" y="18175"><tspan>800 metres</tspan></tspan></tspan></text><path d="M11816 16986h4458v2052h-4458z" fill="#cce6ee"/><text class="TextShape"><tspan class="TextParagraph" font-size="635" font-weight="400" font-family="'Liberation Sans',sans-serif"><tspan class="TextPosition" x="12564" y="18175"><tspan>2 m 0.58 s</tspan></tspan></tspan></text><path d="M16274 16986h4458v2052h-4458z" fill="#cce6ee"/><text class="TextShape"><tspan class="TextParagraph" font-size="635" font-weight="400" font-family="'Liberation Sans',sans-serif"><tspan class="TextPosition" x="18328" y="18175"><tspan>2</tspan></tspan></tspan></text><path d="M20732 16986h4784v2052h-4784z" fill="#cce6ee"/><text class="TextShape"><tspan class="TextParagraph" font-size="635" font-weight="700" font-family="'Liberation Sans',sans-serif"><tspan class="TextPosition" x="22949" y="18175"><tspan>2</tspan></tspan></tspan></text><path d="M25516 16986h4385v2052h-4385z" fill="#cce6ee"/><text class="TextShape"><tspan class="TextParagraph" font-size="635" font-weight="700" font-family="'Liberation Sans',sans-serif"><tspan class="TextPosition" x="26877" y="18175"><tspan>Good</tspan></tspan></tspan></text><path d="M-1143 19038h5565v2052h-5565z" fill="#cce6ee"/><text class="TextShape"><tspan class="TextParagraph" font-size="635" font-weight="400" font-family="'Liberation Sans',sans-serif"><tspan class="TextPosition" x="-172" y="20227"><tspan>Sudha Singh</tspan></tspan></tspan></text><path d="M4422 19038h2827v2052H4422z" fill="#cce6ee"/><text class="TextShape"><tspan class="TextParagraph" font-size="635" font-weight="400" font-family="'Liberation Sans',sans-serif"><tspan class="TextPosition" x="4816" y="20227"><tspan>women</tspan></tspan></tspan></text><path d="M7249 19038h4567v2052H7249z" fill="#cce6ee"/><text class="TextShape"><tspan class="TextParagraph" font-size="635" font-weight="400" font-family="'Liberation Sans',sans-serif"><tspan class="TextPosition" x="7772" y="19928"><tspan>3000 metres </tspan></tspan><tspan class="TextPosition" x="7668" y="20525"><tspan>steeplechase</tspan></tspan></tspan></text><path d="M11816 19038h4458v2052h-4458z" fill="#cce6ee"/><text class="TextShape"><tspan class="TextParagraph" font-size="635" font-weight="400" font-family="'Liberation Sans',sans-serif"><tspan class="TextPosition" x="12388" y="20227"><tspan>9 m 26.55 s</tspan></tspan></tspan></text><path d="M16274 19038h4458v2052h-4458z" fill="#cce6ee"/><text class="TextShape"><tspan class="TextParagraph" font-size="635" font-weight="400" font-family="'Liberation Sans',sans-serif"><tspan class="TextPosition" x="18328" y="20227"><tspan>4</tspan></tspan></tspan></text><path d="M20732 19038h4784v2052h-4784z" fill="#cce6ee"/><text class="TextShape"><tspan class="TextParagraph" font-size="635" font-weight="700" font-family="'Liberation Sans',sans-serif"><tspan class="TextPosition" x="22949" y="20227"><tspan>2</tspan></tspan></tspan></text><path d="M25516 19038h4385v2052h-4385z" fill="#cce6ee"/><text class="TextShape"><tspan class="TextParagraph" font-size="635" font-weight="700" font-family="'Liberation Sans',sans-serif"><tspan class="TextPosition" x="26877" y="20227"><tspan>Good</tspan></tspan></tspan></text><path d="M-1143 21090h5565v2052h-5565z" fill="#cce6ee"/><text class="TextShape"><tspan class="TextParagraph" font-size="635" font-weight="400" font-family="'Liberation Sans',sans-serif"><tspan class="TextPosition" x="-261" y="21980"><tspan>Seema Punia </tspan></tspan><tspan class="TextPosition" x="1024" y="22577"><tspan>Antil</tspan></tspan></tspan></text><path d="M4422 21090h2827v2052H4422z" fill="#cce6ee"/><text class="TextShape"><tspan class="TextParagraph" font-size="635" font-weight="400" font-family="'Liberation Sans',sans-serif"><tspan class="TextPosition" x="4816" y="22279"><tspan>women</tspan></tspan></tspan></text><path d="M7249 21090h4567v2052H7249z" fill="#cce6ee"/><text class="TextShape"><tspan class="TextParagraph" font-size="635" font-weight="400" font-family="'Liberation Sans',sans-serif"><tspan class="TextPosition" x="7719" y="22279"><tspan>Discus throw</tspan></tspan></tspan></text><path d="M11816 21090h4458v2052h-4458z" fill="#cce6ee"/><text class="TextShape"><tspan class="TextParagraph" font-size="635" font-weight="400" font-family="'Liberation Sans',sans-serif"><tspan class="TextPosition" x="12705" y="22279"><tspan>62.62 mtr</tspan></tspan></tspan></text><path d="M16274 21090h4458v2052h-4458z" fill="#cce6ee"/><text class="TextShape"><tspan class="TextParagraph" font-size="635" font-weight="400" font-family="'Liberation Sans',sans-serif"><tspan class="TextPosition" x="18328" y="22279"><tspan>4</tspan></tspan></tspan></text><path d="M20732 21090h4784v2052h-4784z" fill="#cce6ee"/><text class="TextShape"><tspan class="TextParagraph" font-size="635" font-weight="700" font-family="'Liberation Sans',sans-serif"><tspan class="TextPosition" x="22949" y="22279"><tspan>2</tspan></tspan></tspan></text><path d="M25516 21090h4385v2052h-4385z" fill="#cce6ee"/><text class="TextShape"><tspan class="TextParagraph" font-size="635" font-weight="700" font-family="'Liberation Sans',sans-serif"><tspan class="TextPosition" x="26877" y="22279"><tspan>Good</tspan></tspan></tspan></text><path d="M-1143 23142h5565v2052h-5565z" fill="#cce6ee"/><text class="TextShape"><tspan class="TextParagraph" font-size="635" font-weight="400" font-family="'Liberation Sans',sans-serif"><tspan class="TextPosition" x="266" y="24331"><tspan>PU Chitra</tspan></tspan></tspan></text><path d="M4422 23142h2827v2052H4422z" fill="#cce6ee"/><text class="TextShape"><tspan class="TextParagraph" font-size="635" font-weight="400" font-family="'Liberation Sans',sans-serif"><tspan class="TextPosition" x="4816" y="24331"><tspan>women</tspan></tspan></tspan></text><path d="M7249 23142h4567v2052H7249z" fill="#cce6ee"/><text class="TextShape"><tspan class="TextParagraph" font-size="635" font-weight="400" font-family="'Liberation Sans',sans-serif"><tspan class="TextPosition" x="7772" y="24331"><tspan>1500 metres</tspan></tspan></tspan></text><path d="M11816 23142h4458v2052h-4458z" fill="#cce6ee"/><text class="TextShape"><tspan class="TextParagraph" font-size="635" font-weight="400" font-family="'Liberation Sans',sans-serif"><tspan class="TextPosition" x="12388" y="24331"><tspan>4 m 11.55 s</tspan></tspan></tspan></text><path d="M16274 23142h4458v2052h-4458z" fill="#cce6ee"/><text class="TextShape"><tspan class="TextParagraph" font-size="635" font-weight="400" font-family="'Liberation Sans',sans-serif"><tspan class="TextPosition" x="18328" y="24331"><tspan>5</tspan></tspan></tspan></text><path d="M20732 23142h4784v2052h-4784z" fill="#cce6ee"/><text class="TextShape"><tspan class="TextParagraph" font-size="635" font-weight="700" font-family="'Liberation Sans',sans-serif"><tspan class="TextPosition" x="22949" y="24331"><tspan>2</tspan></tspan></tspan></text><path d="M25516 23142h4385v2052h-4385z" fill="#cce6ee"/><text class="TextShape"><tspan class="TextParagraph" font-size="635" font-weight="700" font-family="'Liberation Sans',sans-serif"><tspan class="TextPosition" x="26877" y="24331"><tspan>Good</tspan></tspan></tspan></text><path d="M-1143 25194h5565v2052h-5565z" fill="#cce6ee"/><text class="TextShape"><tspan class="TextParagraph" font-size="635" font-weight="400" font-family="'Liberation Sans',sans-serif"><tspan class="TextPosition" x="-454" y="26383"><tspan>Arpinder Singh</tspan></tspan></tspan></text><path d="M4422 25194h2827v2052H4422z" fill="#cce6ee"/><text class="TextShape"><tspan class="TextParagraph" font-size="635" font-weight="400" font-family="'Liberation Sans',sans-serif"><tspan class="TextPosition" x="5220" y="26383"><tspan>men</tspan></tspan></tspan></text><path d="M7249 25194h4567v2052H7249z" fill="#cce6ee"/><text class="TextShape"><tspan class="TextParagraph" font-size="635" font-weight="400" font-family="'Liberation Sans',sans-serif"><tspan class="TextPosition" x="7979" y="26383"><tspan>Triple jump</tspan></tspan></tspan></text><path d="M11816 25194h4458v2052h-4458z" fill="#cce6ee"/><text class="TextShape"><tspan class="TextParagraph" font-size="635" font-weight="400" font-family="'Liberation Sans',sans-serif"><tspan class="TextPosition" x="12705" y="26383"><tspan>17.09 mtr</tspan></tspan></tspan></text><path d="M16274 25194h4458v2052h-4458z" fill="#cce6ee"/><text class="TextShape"><tspan class="TextParagraph" font-size="635" font-weight="400" font-family="'Liberation Sans',sans-serif"><tspan class="TextPosition" x="18328" y="26383"><tspan>5</tspan></tspan></tspan></text><path d="M20732 25194h4784v2052h-4784z" fill="#cce6ee"/><text class="TextShape"><tspan class="TextParagraph" font-size="635" font-weight="700" font-family="'Liberation Sans',sans-serif"><tspan class="TextPosition" x="22949" y="26383"><tspan>2</tspan></tspan></tspan></text><path d="M25516 25194h4385v2052h-4385z" fill="#cce6ee"/><text class="TextShape"><tspan class="TextParagraph" font-size="635" font-weight="700" font-family="'Liberation Sans',sans-serif"><tspan class="TextPosition" x="26877" y="26383"><tspan>Good</tspan></tspan></tspan></text><path d="M-1143 27246h5565v2052h-5565z" fill="#fff"/><text class="TextShape"><tspan class="TextParagraph" font-size="635" font-weight="400" font-family="'Liberation Sans',sans-serif"><tspan class="TextPosition" x="-735" y="28435"><tspan>Nirmala Sheoran</tspan></tspan></tspan></text><path d="M4422 27246h2827v2052H4422z" fill="#fff"/><text class="TextShape"><tspan class="TextParagraph" font-size="635" font-weight="400" font-family="'Liberation Sans',sans-serif"><tspan class="TextPosition" x="4816" y="28435"><tspan>women</tspan></tspan></tspan></text><path d="M7249 27246h4567v2052H7249z" fill="#fff"/><text class="TextShape"><tspan class="TextParagraph" font-size="635" font-weight="400" font-family="'Liberation Sans',sans-serif"><tspan class="TextPosition" x="7947" y="28435"><tspan>400 metres</tspan></tspan></tspan></text><path d="M11816 27246h4458v2052h-4458z" fill="#fff"/><text class="TextShape"><tspan class="TextParagraph" font-size="635" font-weight="400" font-family="'Liberation Sans',sans-serif"><tspan class="TextPosition" x="13006" y="28435"><tspan>51.25 s</tspan></tspan></tspan></text><path d="M16274 27246h4458v2052h-4458z" fill="#fff"/><text class="TextShape"><tspan class="TextParagraph" font-size="635" font-weight="400" font-family="'Liberation Sans',sans-serif"><tspan class="TextPosition" x="18328" y="28435"><tspan>3</tspan></tspan></tspan></text><path d="M20732 27246h4784v2052h-4784z" fill="#fff"/><text class="TextShape"><tspan class="TextParagraph" font-size="635" font-weight="700" font-family="'Liberation Sans',sans-serif"><tspan class="TextPosition" x="22949" y="28435"><tspan>3</tspan></tspan></tspan></text><path d="M25516 27246h4385v2052h-4385z" fill="#fff"/><text class="TextShape"><tspan class="TextParagraph" font-size="635" font-weight="700" font-family="'Liberation Sans',sans-serif"><tspan class="TextPosition" x="26985" y="28435"><tspan>Poor</tspan></tspan></tspan></text><path d="M-1143 29298h5565v2052h-5565z" fill="#fff"/><text class="TextShape"><tspan class="TextParagraph" font-size="635" font-weight="400" font-family="'Liberation Sans',sans-serif"><tspan class="TextPosition" x="461" y="30188"><tspan>Purnima </tspan></tspan><tspan class="TextPosition" x="249" y="30785"><tspan>Hembram</tspan></tspan></tspan></text><path d="M4422 29298h2827v2052H4422z" fill="#fff"/><text class="TextShape"><tspan class="TextParagraph" font-size="635" font-weight="400" font-family="'Liberation Sans',sans-serif"><tspan class="TextPosition" x="4816" y="30487"><tspan>women</tspan></tspan></tspan></text><path d="M7249 29298h4567v2052H7249z" fill="#fff"/><text class="TextShape"><tspan class="TextParagraph" font-size="635" font-weight="400" font-family="'Liberation Sans',sans-serif"><tspan class="TextPosition" x="7827" y="30487"><tspan>Heptathalon</tspan></tspan></tspan></text><path d="M11816 29298h4458v2052h-4458z" fill="#fff"/><text class="TextShape"><tspan class="TextParagraph" font-size="635" font-weight="400" font-family="'Liberation Sans',sans-serif"><tspan class="TextPosition" x="12830" y="30487"><tspan>5898 pts</tspan></tspan></tspan></text><path d="M16274 29298h4458v2052h-4458z" fill="#fff"/><text class="TextShape"><tspan class="TextParagraph" font-size="635" font-weight="400" font-family="'Liberation Sans',sans-serif"><tspan class="TextPosition" x="18328" y="30487"><tspan>3</tspan></tspan></tspan></text><path d="M20732 29298h4784v2052h-4784z" fill="#fff"/><text class="TextShape"><tspan class="TextParagraph" font-size="635" font-weight="700" font-family="'Liberation Sans',sans-serif"><tspan class="TextPosition" x="22949" y="30487"><tspan>3</tspan></tspan></tspan></text><path d="M25516 29298h4385v2052h-4385z" fill="#fff"/><text class="TextShape"><tspan class="TextParagraph" font-size="635" font-weight="700" font-family="'Liberation Sans',sans-serif"><tspan class="TextPosition" x="26985" y="30487"><tspan>Poor</tspan></tspan></tspan></text><path d="M-1143 31350h5565v2052h-5565z" fill="#fff"/><text class="TextShape"><tspan class="TextParagraph" font-size="635" font-weight="400" font-family="'Liberation Sans',sans-serif"><tspan class="TextPosition" x="-483" y="32240"><tspan>Neena Varakkil </tspan></tspan><tspan class="TextPosition" x="918" y="32837"><tspan>Pinto</tspan></tspan></tspan></text><path d="M4422 31350h2827v2052H4422z" fill="#fff"/><text class="TextShape"><tspan class="TextParagraph" font-size="635" font-weight="400" font-family="'Liberation Sans',sans-serif"><tspan class="TextPosition" x="4816" y="32539"><tspan>women</tspan></tspan></tspan></text><path d="M7249 31350h4567v2052H7249z" fill="#fff"/><text class="TextShape"><tspan class="TextParagraph" font-size="635" font-weight="400" font-family="'Liberation Sans',sans-serif"><tspan class="TextPosition" x="8055" y="32539"><tspan>Long jump</tspan></tspan></tspan></text><path d="M11816 31350h4458v2052h-4458z" fill="#fff"/><text class="TextShape"><tspan class="TextParagraph" font-size="635" font-weight="400" font-family="'Liberation Sans',sans-serif"><tspan class="TextPosition" x="12881" y="32539"><tspan>6.66 mtr</tspan></tspan></tspan></text><path d="M16274 31350h4458v2052h-4458z" fill="#fff"/><text class="TextShape"><tspan class="TextParagraph" font-size="635" font-weight="400" font-family="'Liberation Sans',sans-serif"><tspan class="TextPosition" x="18328" y="32539"><tspan>4</tspan></tspan></tspan></text><path d="M20732 31350h4784v2052h-4784z" fill="#fff"/><text class="TextShape"><tspan class="TextParagraph" font-size="635" font-weight="700" font-family="'Liberation Sans',sans-serif"><tspan class="TextPosition" x="22949" y="32539"><tspan>3</tspan></tspan></tspan></text><path d="M25516 31350h4385v2052h-4385z" fill="#fff"/><text class="TextShape"><tspan class="TextParagraph" font-size="635" font-weight="700" font-family="'Liberation Sans',sans-serif"><tspan class="TextPosition" x="26985" y="32539"><tspan>Poor</tspan></tspan></tspan></text><path d="M-1143 33402h5565v2052h-5565z" fill="#fff"/><text class="TextShape"><tspan class="TextParagraph" font-size="635" font-weight="400" font-family="'Liberation Sans',sans-serif"><tspan class="TextPosition" x="-225" y="34591"><tspan>Dutee Chand</tspan></tspan></tspan></text><path d="M4422 33402h2827v2052H4422z" fill="#fff"/><text class="TextShape"><tspan class="TextParagraph" font-size="635" font-weight="400" font-family="'Liberation Sans',sans-serif"><tspan class="TextPosition" x="4816" y="34591"><tspan>women</tspan></tspan></tspan></text><path d="M7249 33402h4567v2052H7249z" fill="#fff"/><text class="TextShape"><tspan class="TextParagraph" font-size="635" font-weight="400" font-family="'Liberation Sans',sans-serif"><tspan class="TextPosition" x="7947" y="34591"><tspan>100 metres</tspan></tspan></tspan></text><path d="M11816 33402h4458v2052h-4458z" fill="#fff"/><text class="TextShape"><tspan class="TextParagraph" font-size="635" font-weight="400" font-family="'Liberation Sans',sans-serif"><tspan class="TextPosition" x="13006" y="34591"><tspan>11.24 s</tspan></tspan></tspan></text><path d="M16274 33402h4458v2052h-4458z" fill="#fff"/><text class="TextShape"><tspan class="TextParagraph" font-size="635" font-weight="400" font-family="'Liberation Sans',sans-serif"><tspan class="TextPosition" x="18328" y="34591"><tspan>4</tspan></tspan></tspan></text><path d="M20732 33402h4784v2052h-4784z" fill="#fff"/><text class="TextShape"><tspan class="TextParagraph" font-size="635" font-weight="700" font-family="'Liberation Sans',sans-serif"><tspan class="TextPosition" x="22949" y="34591"><tspan>4</tspan></tspan></tspan></text><path d="M25516 33402h4385v2052h-4385z" fill="#fff"/><text class="TextShape"><tspan class="TextParagraph" font-size="635" font-weight="700" font-family="'Liberation Sans',sans-serif"><tspan class="TextPosition" x="26985" y="34591"><tspan>Poor</tspan></tspan></tspan></text><path d="M-1143 35454h5565v2052h-5565z" fill="#fff"/><text class="TextShape"><tspan class="TextParagraph" font-size="635" font-weight="400" font-family="'Liberation Sans',sans-serif"><tspan class="TextPosition" x="-824" y="36643"><tspan>Mohammed Anas</tspan></tspan></tspan></text><path d="M4422 35454h2827v2052H4422z" fill="#fff"/><text class="TextShape"><tspan class="TextParagraph" font-size="635" font-weight="400" font-family="'Liberation Sans',sans-serif"><tspan class="TextPosition" x="5220" y="36643"><tspan>men</tspan></tspan></tspan></text><path d="M7249 35454h4567v2052H7249z" fill="#fff"/><text class="TextShape"><tspan class="TextParagraph" font-size="635" font-weight="400" font-family="'Liberation Sans',sans-serif"><tspan class="TextPosition" x="7947" y="36643"><tspan>400 metres</tspan></tspan></tspan></text><path d="M11816 35454h4458v2052h-4458z" fill="#fff"/><text class="TextShape"><tspan class="TextParagraph" font-size="635" font-weight="400" font-family="'Liberation Sans',sans-serif"><tspan class="TextPosition" x="13006" y="36643"><tspan>45.24 s</tspan></tspan></tspan></text><path d="M16274 35454h4458v2052h-4458z" fill="#fff"/><text class="TextShape"><tspan class="TextParagraph" font-size="635" font-weight="400" font-family="'Liberation Sans',sans-serif"><tspan class="TextPosition" x="18328" y="36643"><tspan>5</tspan></tspan></tspan></text><path d="M20732 35454h4784v2052h-4784z" fill="#fff"/><text class="TextShape"><tspan class="TextParagraph" font-size="635" font-weight="700" font-family="'Liberation Sans',sans-serif"><tspan class="TextPosition" x="22949" y="36643"><tspan>4</tspan></tspan></tspan></text><path d="M25516 35454h4385v2052h-4385z" fill="#fff"/><text class="TextShape"><tspan class="TextParagraph" font-size="635" font-weight="700" font-family="'Liberation Sans',sans-serif"><tspan class="TextPosition" x="26985" y="36643"><tspan>Poor</tspan></tspan></tspan></text><path d="M-1143 37506h5565v2052h-5565z" fill="#fff"/><text class="TextShape"><tspan class="TextParagraph" font-size="635" font-weight="400" font-family="'Liberation Sans',sans-serif"><tspan class="TextPosition" x="-85" y="38695"><tspan>Sarita Singh</tspan></tspan></tspan></text><path d="M4422 37506h2827v2052H4422z" fill="#fff"/><text class="TextShape"><tspan class="TextParagraph" font-size="635" font-weight="400" font-family="'Liberation Sans',sans-serif"><tspan class="TextPosition" x="4816" y="38695"><tspan>women</tspan></tspan></tspan></text><path d="M7249 37506h4567v2052H7249z" fill="#fff"/><text class="TextShape"><tspan class="TextParagraph" font-size="635" font-weight="400" font-family="'Liberation Sans',sans-serif"><tspan class="TextPosition" x="8318" y="38396"><tspan>Hammer </tspan></tspan><tspan class="TextPosition" x="8758" y="38993"><tspan>throw</tspan></tspan></tspan></text><path d="M11816 37506h4458v2052h-4458z" fill="#fff"/><text class="TextShape"><tspan class="TextParagraph" font-size="635" font-weight="400" font-family="'Liberation Sans',sans-serif"><tspan class="TextPosition" x="12705" y="38695"><tspan>65.25 mtr</tspan></tspan></tspan></text><path d="M16274 37506h4458v2052h-4458z" fill="#fff"/><text class="TextShape"><tspan class="TextParagraph" font-size="635" font-weight="400" font-family="'Liberation Sans',sans-serif"><tspan class="TextPosition" x="18152" y="38695"><tspan>10</tspan></tspan></tspan></text><path d="M20732 37506h4784v2052h-4784z" fill="#fff"/><text class="TextShape"><tspan class="TextParagraph" font-size="635" font-weight="700" font-family="'Liberation Sans',sans-serif"><tspan class="TextPosition" x="22949" y="38695"><tspan>4</tspan></tspan></tspan></text><path d="M25516 37506h4385v2052h-4385z" fill="#fff"/><text class="TextShape"><tspan class="TextParagraph" font-size="635" font-weight="700" font-family="'Liberation Sans',sans-serif"><tspan class="TextPosition" x="26985" y="38695"><tspan>Poor</tspan></tspan></tspan></text><path d="M-1143 39558h5565v2052h-5565z" fill="#fff"/><text class="TextShape"><tspan class="TextParagraph" font-size="635" font-weight="400" font-family="'Liberation Sans',sans-serif"><tspan class="TextPosition" x="-386" y="40747"><tspan>Sowmya Baby</tspan></tspan></tspan></text><path d="M4422 39558h2827v2052H4422z" fill="#fff"/><text class="TextShape"><tspan class="TextParagraph" font-size="635" font-weight="400" font-family="'Liberation Sans',sans-serif"><tspan class="TextPosition" x="4816" y="40747"><tspan>women</tspan></tspan></tspan></text><path d="M7249 39558h4567v2052H7249z" fill="#fff"/><text class="TextShape"><tspan class="TextParagraph" font-size="635" font-weight="400" font-family="'Liberation Sans',sans-serif"><tspan class="TextPosition" x="7947" y="40747"><tspan>20 km walk</tspan></tspan></tspan></text><path d="M11816 39558h4458v2052h-4458z" fill="#fff"/><text class="TextShape"><tspan class="TextParagraph" font-size="635" font-weight="400" font-family="'Liberation Sans',sans-serif"><tspan class="TextPosition" x="12123" y="40747"><tspan>1 h 31 m 29 s</tspan></tspan></tspan></text><path d="M16274 39558h4458v2052h-4458z" fill="#fff"/><text class="TextShape"><tspan class="TextParagraph" font-size="635" font-weight="400" font-family="'Liberation Sans',sans-serif"><tspan class="TextPosition" x="18152" y="40747"><tspan>30</tspan></tspan></tspan></text><path d="M20732 39558h4784v2052h-4784z" fill="#fff"/><text class="TextShape"><tspan class="TextParagraph" font-size="635" font-weight="700" font-family="'Liberation Sans',sans-serif"><tspan class="TextPosition" x="22949" y="40747"><tspan>4</tspan></tspan></tspan></text><path d="M25516 39558h4385v2052h-4385z" fill="#fff"/><text class="TextShape"><tspan class="TextParagraph" font-size="635" font-weight="700" font-family="'Liberation Sans',sans-serif"><tspan class="TextPosition" x="26985" y="40747"><tspan>Poor</tspan></tspan></tspan></text><path d="M-1143 41610h5565v858h-5565zM4422 41610h2827v858H4422zM7249 41610h4567v858H7249zM11816 41610h4458v858h-4458zM16274 41610h4458v858h-4458zM20732 41610h4784v858h-4784zM25516 41610h4385v858h-4385zM-1143 42468h31044v858H-1143z" fill="#fff"/><text class="TextShape"><tspan class="TextParagraph" font-size="635" font-weight="400" font-family="'Liberation Sans',sans-serif"><tspan class="TextPosition" x="-893" y="43060"><tspan>Note: h - hours, m - minutes, mtr - metres, pts - points, s - seconds</tspan></tspan></tspan></text><path d="M-1144-4323h31046M-1144-363h31046M-1144 4674h31046M-1144 6726h31046M-1144 8778h31046M-1144 10830h31046M-1144 12882h31046M-1144 14934h31046M-1144 16986h31046M-1144 19038h31046M-1144 21090h31046M-1144 23142h31046M-1144 25194h31046M-1144 27246h31046M-1144 29298h31046M-1144 31350h31046M-1144 33402h31046M-1144 35454h31046M-1144 37506h31046M-1144 39558h31046M-1144 41610h31046M-1144 42468h5567M-1144 43326h5566M4421 42468h2829M4422 43326h2827M7248 42468h4569M7249 43326h4567M11815 42468h4460M11816 43326h4458M16273 42468h4460M16274 43326h4458M20731 42468h4786M20732 43326h4784M25515 42468h4387M25516 43326h4386M-1143-4324v47651M4422-364v42833M7249-364v42833M11816-364v42833M16274-364v42833M20732-364v42833M29901-4324v3962M25516-364v5039M29901-364v5039M25516 4673v2054M29901 4673v2054M25516 6725v2054M29901 6725v2054M25516 8777v2054M29901 8777v2054M25516 10829v2054M29901 10829v2054M25516 12881v2054M29901 12881v2054M25516 14933v2054M29901 14933v2054M25516 16985v2054M29901 16985v2054M25516 19037v2054M29901 19037v2054M25516 21089v2054M29901 21089v2054M25516 23141v2054M29901 23141v2054M25516 25193v2054M29901 25193v2054M25516 27245v2054M29901 27245v2054M25516 29297v2054M29901 29297v2054M25516 31349v2054M29901 31349v2054M25516 33401v2054M29901 33401v2054M25516 35453v2054M29901 35453v2054M25516 37505v2054M29901 37505v2054M25516 39557v2054M29901 39557v2054M25516 41609v860M29901 41609v1718" fill="none" stroke="#fff" stroke-width="2"/></g></g></g></g><path fill="none" stroke="#66b4cd" stroke-width="68.162" stroke-linejoin="miter" d="M-1098.243-4284.388h30993.92v47609.754h-30993.92z"/></svg>